<?xml version="1.0" encoding="iso-8859-1"?>
<!-- Generator: Adobe Illustrator 19.0.0, SVG Export Plug-In . SVG Version: 6.00 Build 0)  -->
<svg version="1.1" id="Layer_1" xmlns="http://www.w3.org/2000/svg" xmlns:xlink="http://www.w3.org/1999/xlink" x="0px" y="0px"
	 viewBox="0 0 483.344 483.344" style="enable-background:new 0 0 483.344 483.344;" xml:space="preserve">
<path style="fill:#47BBF4;" d="M196.88,227.008c10.096-5.08,17.752-10.72,22.952-16.872c9.296-11.016,13.92-25.608,13.92-43.704
	c0-17.576-4.624-32.616-13.816-45.232C204.648,100.632,178.68,89.624,142,89.624H0v296h132.176c15.296,0,29.432-0.984,42.496-3.68
	c13.064-2.704,24.376-7.488,33.96-14.736c8.528-6.328,15.624-14.048,21.288-23.288c8.968-13.944,13.44-29.672,13.44-47.264
	c0-17.064-3.92-31.552-11.704-43.464C223.784,241.256,212.208,232.552,196.88,227.008z M56,137.624h66.08
	c14.392,0,26.248,3.272,35.56,6.352c10.768,4.456,16.16,14.432,16.16,28.28c0,12.44-4.096,23.104-12.224,28.008
	c-8.184,4.928-18.808,9.36-31.824,9.36H56V137.624z M160.112,330.96c-7.232,3.472-17.424,6.664-30.464,6.664H56v-80h74.672
	c12.856,0,22.904,0.816,30.064,4.032c12.784,5.768,19.144,16.576,19.144,32.04C179.88,311.952,173.32,324.464,160.112,330.96z"/>
<path style="fill:#1A70F9;" d="M196.88,227.008c10.096-5.08,17.752-10.72,22.952-16.872c9.296-11.016,13.92-25.608,13.92-43.704
	c0-17.576-4.624-32.704-13.816-45.32C204.648,100.544,178.68,97.624,142,97.624H0v288h132.176c15.296,0,29.432-0.984,42.496-3.68
	c13.064-2.704,24.376-7.488,33.96-14.736c8.528-6.328,15.624-14.048,21.288-23.288c8.968-13.944,13.44-29.672,13.44-47.264
	c0-17.064-3.92-31.552-11.704-43.464C223.784,241.256,212.208,232.552,196.88,227.008z M56,137.624h66.08
	c14.392,0,26.248,3.272,35.56,6.352c10.768,4.456,16.16,14.432,16.16,28.28c0,12.44-4.096,23.104-12.224,28.008
	c-8.184,4.928-18.808,9.36-31.824,9.36H56V137.624z M160.112,330.96c-7.232,3.472-17.424,6.664-30.464,6.664H56v-80h74.672
	c12.856,0,22.904,0.816,30.064,4.032c12.784,5.768,19.144,16.576,19.144,32.04C179.88,311.952,173.32,324.464,160.112,330.96z"/>
<rect x="304" y="105.624" style="fill:#47BBF4;" width="136" height="32"/>
<rect x="304" y="113.624" style="fill:#1A70F9;" width="136" height="24"/>
<path style="fill:#47BBF4;" d="M463.568,203.76c-10.08-14.792-22.872-25.64-38.408-32.472c-15.488-6.856-32.92-10.296-52.312-10.296
	c-32.576,0-59.048,10.184-79.504,30.432c-20.4,20.296-30.616,49.456-30.616,87.48c0,40.528,11.264,69.84,33.952,87.832
	c22.592,18,48.72,26.984,78.328,26.984c35.84,0,63.76-10.888,83.672-32.2c12.76-13.448,19.984-23.896,21.544-39.896h-59.392
	c-3.416,8-7.424,11.68-11.976,15.32c-8.272,6.688-19.056,10.168-32.24,10.168c-12.528,0-23.2-4.256-32.096-9.752
	c-14.624-8.824-22.296-23.736-23.264-47.736h162.032c0.256-16-0.368-31.992-1.952-42.032
	C478.664,230.408,472.752,216.8,463.568,203.76z M322.664,257.624c2.128-16,7.304-27.008,15.504-35.352
	c8.216-8.36,19.84-13.232,34.72-13.232c13.72,0,25.192,4.976,34.52,12.832c9.248,7.944,14.456,19.752,15.504,35.752H322.664z"/>
<path style="fill:#1A70F9;" d="M463.568,203.76c-10.08-14.792-22.872-25.64-38.408-32.472c-15.488-6.856-32.92-2.128-52.312-2.128
	c-32.576,0-59.048,2.016-79.504,22.256c-20.4,20.296-30.616,49.456-30.616,87.48c0,40.528,11.264,69.84,33.952,87.832
	c22.592,18,48.72,26.984,78.328,26.984c35.84,0,63.76-10.888,83.672-32.2c12.76-13.44,19.984-23.888,21.544-39.888h-59.392
	c-3.416,8-7.424,11.68-11.976,15.32c-8.272,6.688-19.056,10.168-32.24,10.168c-12.528,0-23.2-4.256-32.096-9.752
	c-14.624-8.824-22.296-23.736-23.264-47.736h162.032c0.256-16-0.368-31.992-1.952-42.032
	C478.664,230.408,472.752,216.8,463.568,203.76z M322.664,257.624c2.128-16,7.304-27.008,15.504-35.352
	c8.216-8.36,19.84-13.232,34.72-13.232c13.72,0,25.192,4.976,34.52,12.832c9.248,7.944,14.456,19.752,15.504,35.752H322.664z"/>
<g>
	<path style="fill:#0954CC;" d="M179.864,292.904c-0.112,18.008-6.656,31.608-19.752,38.056c-7.232,3.472-17.424,6.664-30.464,6.664
		H57.112l0,0l50.112,48h24.952c15.296,0,29.432-0.984,42.496-3.68c13.064-2.704,24.376-7.488,33.96-14.736
		c8.528-6.328,15.624-14.048,21.288-23.288c0.144-0.2,0.232-0.408,0.36-0.624L179.864,292.904z"/>
	<path style="fill:#0954CC;" d="M231.664,253.208c-7.872-11.936-19.456-20.656-34.784-26.2c10.096-5.08,17.752-10.72,22.952-16.872
		c0.952-1.112,1.992-2.536,1.992-2.536l-50.104-48.648l0,0c0,0,2.08,5.712,2.08,15.744c0,12.44-5.568,21.528-13.704,26.44
		c-8.176,4.92-17.328,8.488-30.344,8.488H56v-3.208v3.208l49.424,48h25.248c12.856,0,22.904,0.816,30.064,4.032
		c12.784,5.768,19.144,15.856,19.144,31.328c0,12.232-3.888,23.44-9.808,30.368l43.264,40.28
		c6.456-5.56,12.016-12.112,16.592-19.576c8.968-13.944,13.44-29.744,13.44-47.328C243.36,279.664,239.44,265.128,231.664,253.208z"
		/>
	<path style="fill:#0954CC;" d="M408.856,336.944c-0.744,0.6-1.616,1.144-2.4,1.688l36.464,36.52
		c5.704-3.896,10.976-8.552,15.76-13.672c12.76-13.44,19.984-23.856,21.544-39.856h-59.392
		C417.416,329.624,413.408,333.304,408.856,336.944z"/>
	<path style="fill:#0954CC;" d="M422.912,257.624h-100.08l0.84,1l36.728,31h100.848l-38.424-35.496
		C422.848,254.328,422.896,257.624,422.912,257.624z"/>
	<path style="fill:#0954CC;" d="M426.344,321.624h-5.512c-3.416,8-7.424,11.68-11.976,15.32
		c-8.272,6.688-19.056,10.168-32.24,10.168c-12.528,0-22.032-3.552-30.92-9.048c-1.8-1.096-8.056-5.8-8.056-5.8l3.84,5.064
		l53,55.208c26.032-3.448,48.328-14.032,64.2-31.032c1.232-1.296,2.36-2.288,3.488-3.568L426.344,321.624z"/>
</g>
<g>
</g>
<g>
</g>
<g>
</g>
<g>
</g>
<g>
</g>
<g>
</g>
<g>
</g>
<g>
</g>
<g>
</g>
<g>
</g>
<g>
</g>
<g>
</g>
<g>
</g>
<g>
</g>
<g>
</g>
</svg>
