<?xml version="1.0" encoding="utf-8"?>
<!-- Generator: Adobe Illustrator 24.3.0, SVG Export Plug-In . SVG Version: 6.00 Build 0)  -->
<svg version="1.1" id="Layer_1" xmlns="http://www.w3.org/2000/svg" xmlns:xlink="http://www.w3.org/1999/xlink" x="0px" y="0px"
	 viewBox="0 0 335.8 304.3" style="enable-background:new 0 0 335.8 304.3;" xml:space="preserve">
<style type="text/css">
	.st0{clip-path:url(#SVGID_2_);}
	.st1{fill:url(#SVGID_3_);}
	.st2{fill:url(#SVGID_4_);}
	.st3{fill:url(#SVGID_5_);}
	.st4{fill:url(#SVGID_6_);}
	.st5{fill:url(#SVGID_7_);}
	.st6{fill:url(#SVGID_8_);}
	.st7{fill:url(#SVGID_9_);}
	.st8{fill:url(#SVGID_10_);}
	.st9{fill:url(#SVGID_11_);}
	.st10{fill:url(#SVGID_12_);}
	.st11{fill:url(#SVGID_13_);}
	.st12{fill:url(#SVGID_14_);}
	.st13{fill:url(#SVGID_15_);}
	.st14{fill:url(#SVGID_16_);}
	.st15{fill:url(#SVGID_17_);}
	.st16{fill:url(#SVGID_18_);}
	.st17{fill:url(#SVGID_19_);}
	.st18{fill:url(#SVGID_20_);}
	.st19{fill:url(#SVGID_21_);}
	.st20{fill:url(#SVGID_22_);}
	.st21{fill:url(#SVGID_23_);}
	.st22{fill:url(#SVGID_24_);}
	.st23{fill:url(#SVGID_25_);}
	.st24{fill:url(#SVGID_26_);}
	.st25{fill:url(#SVGID_27_);}
	.st26{fill:url(#SVGID_28_);}
	.st27{fill:url(#SVGID_29_);}
	.st28{fill:url(#SVGID_30_);}
	.st29{fill:url(#SVGID_31_);}
	.st30{fill:url(#SVGID_32_);}
	.st31{fill:url(#SVGID_33_);}
	.st32{fill:url(#SVGID_34_);}
	.st33{fill:url(#SVGID_35_);}
	.st34{fill:url(#SVGID_36_);}
	.st35{fill:url(#SVGID_37_);}
	.st36{fill:url(#SVGID_38_);}
	.st37{fill:url(#SVGID_39_);}
	.st38{fill:url(#SVGID_40_);}
	.st39{fill:url(#SVGID_41_);}
	.st40{fill:url(#SVGID_42_);}
	.st41{fill:url(#SVGID_43_);}
	.st42{fill:url(#SVGID_44_);}
	.st43{fill:url(#SVGID_45_);}
	.st44{fill:url(#SVGID_46_);}
</style>
<g>
	<defs>
		<path id="SVGID_1_" d="M168.3,70.1C125,69.9,89.7,104.7,89.5,148s34.6,78.6,77.9,78.9s78.6-34.6,78.9-77.9c0,0,0,0,0,0
			C246.5,105.7,211.6,70.4,168.3,70.1z M185.5,152.3L154.8,172c-2,1.3-4.6,0.7-5.9-1.3c-0.4-0.7-0.7-1.5-0.7-2.3l0.2-39.7
			c0-2.4,1.9-4.3,4.3-4.2c0.8,0,1.6,0.2,2.3,0.7l30.4,20c2,1.3,2.5,3.9,1.2,5.9C186.4,151.5,186,151.9,185.5,152.3L185.5,152.3z"/>
	</defs>
	<clipPath id="SVGID_2_">
		<use xlink:href="#SVGID_1_"  style="overflow:visible;"/>
	</clipPath>
	<g class="st0">
		
			<linearGradient id="SVGID_3_" gradientUnits="userSpaceOnUse" x1="328.2893" y1="27.2484" x2="664.02" y2="27.2484" gradientTransform="matrix(1 0 0 -1 -290.69 178.21)">
			<stop  offset="0" style="stop-color:#CA92C1"/>
			<stop  offset="1" style="stop-color:#72CDDF"/>
		</linearGradient>
		<path class="st1" d="M243.1,302.1c-2.2-0.7-4.5-1.4-6.7-2.1c-5-1.7-10.1-3.2-15.3-4.4c-6-1.2-11.9-2.7-17.8-4.5
			c-5.8-1.8-11.5-4.1-17-6.7c-26.2-12.5-50.9-30.1-73.2-52.1c-21.4-21.4-39.9-45.5-54.9-71.8c-5.4-9-10-18.5-13.8-28.3
			c-3.8-9.7-6.1-20-6.6-30.4c-0.6-15,3.1-30.3,10.9-45.6c3.7-7.1,8.1-13.9,13-20.3c4.9-6.4,10.3-12.4,16.1-18
			c6.6-6.4,14.7-13.4,24.6-16.5c9-2.8,18.9-2.2,27.7-1.7c6.3,0.3,12.6,0.2,18.9-0.4c3-0.2,6.1-0.4,9.3-0.5h0.5
			c2.6,0,5.2,0.6,7.5,1.6c2.5,1.2,4.8,2.9,6.6,5c9,10.6,18.1,16.7,32.4,21.6c9,3.1,18.3,5.2,27.7,6.3c3.2,0.4,6.7,0.9,10.2,1.4
			c4.9,0.7,9.5,1.4,12.3,1.6c7.9,0.7,15.6,2.9,22.8,6.4c7.2,3.5,14.1,7.7,20.5,12.6c4.1,3,8.1,6.2,12,9.3
			c8.4,6.7,17.1,13.5,26.6,18.9c10.1,5.7,21,9.6,32.4,11.5l0,0c1.4,0.2,2.8,0.5,3.4,2.3c0.4,1.2,0.3,2.4-0.3,3.5c-1.1,1.9-3,3-5,4h0
			c-11.5,6.2-22.2,13.5-32.1,22c-19.8,17-36,37.9-47.4,61.4c-5.7,11.7-10.1,24-13.2,36.7c-2.2,9.1-2.1,20.1-2,31.8
			c0.1,8.8,0.2,17.9-0.8,26.2c-1.3,11.5-11,20.1-22.6,20.1C247.4,303.1,245.2,302.8,243.1,302.1z M172.8,5.5c-1.8-2.1-4-3.8-6.6-4.9
			c-2.4-1.1-4.9-1.6-7.5-1.6h-0.5c-3.2,0.1-6.3,0.3-9.3,0.5c-6.3,0.6-12.6,0.7-18.9,0.4c-8.8-0.5-18.7-1.1-27.7,1.7
			c-9.9,3.1-18,10.1-24.6,16.4c-5.8,5.6-11.2,11.6-16.1,18c-4.9,6.4-9.3,13.1-13,20.3c-7.9,15.3-11.5,30.6-10.9,45.5
			c0.6,10.4,2.8,20.6,6.6,30.3c3.8,9.8,8.5,19.2,13.8,28.3c15,26.3,33.5,50.4,54.9,71.8c22.3,22.1,46.9,39.6,73.1,52.1
			c5.5,2.6,11.2,4.8,17,6.7c5.8,1.8,11.8,3.3,17.8,4.5c5.2,1.2,10.3,2.7,15.3,4.4c2.2,0.7,4.5,1.4,6.7,2.1c12,3.7,24.7-3,28.4-15
			c0.4-1.3,0.7-2.7,0.9-4.1c1-8.3,0.9-17.4,0.8-26.2c-0.1-11.7-0.2-22.7,1.9-31.8c3.1-12.7,7.5-25,13.2-36.7
			c11.4-23.5,27.5-44.4,47.4-61.4c9.9-8.5,20.7-15.8,32.2-22l0,0c1.9-1,3.9-2.1,5-4c0.6-1.1,0.7-2.3,0.3-3.5c-0.6-1.8-2-2-3.4-2.3
			l0,0c-11.4-2-22.4-5.9-32.4-11.6c-9.5-5.3-18.2-12.2-26.6-18.9c-3.9-3.1-8-6.3-12-9.3c-6.4-4.8-13.3-9.1-20.5-12.6
			c-7.1-3.5-14.8-5.7-22.8-6.4c-2.8-0.2-7.4-0.9-12.2-1.6c-3.4-0.5-7-1-10.2-1.4c-9.4-1.1-18.7-3.2-27.7-6.3
			C190.9,22.2,181.8,16.2,172.8,5.5L172.8,5.5L172.8,5.5z"/>
		
			<linearGradient id="SVGID_4_" gradientUnits="userSpaceOnUse" x1="331.8273" y1="27.6553" x2="658.5252" y2="27.6553" gradientTransform="matrix(1 0 0 -1 -290.69 178.21)">
			<stop  offset="0" style="stop-color:#CA92C1"/>
			<stop  offset="1" style="stop-color:#72CDDF"/>
		</linearGradient>
		<path class="st2" d="M240.5,297.9c-2.2-0.7-4.5-1.4-6.7-2c-4.8-1.6-9.7-3-14.6-4l0,0c-11.7-2.1-23-5.7-33.7-10.7
			c-15-7.2-29.3-15.8-42.6-25.9c-31.5-23.7-59.7-56.1-81.5-93.8c-8.7-15.1-18.9-35.2-20-56.8C40.2,83.7,47,62.5,61,43.5
			c5.8-7.9,12.4-15.2,19.6-21.9c6.6-6.2,14.7-13,24.4-16.2c8.9-2.9,18.7-2.4,27.3-2c6.1,0.2,12.1,0,18.2-0.6
			c3.1-0.3,6.2-0.5,9.5-0.6c5.5-0.2,10.8,2.1,14.4,6.3c8.7,10,17.5,15.7,31.4,20.4c8.7,2.9,17.7,4.9,26.8,5.9
			c3.2,0.4,6.7,0.9,10.2,1.4c4.6,0.6,8.9,1.3,11.6,1.5c13.1,1,26.4,6.9,42,18.5c4.4,3.3,8.8,6.8,13,10.3
			c7.7,6.2,15.6,12.7,24.1,17.8c9.5,5.6,19.9,9.6,30.7,11.9c1.3,0.3,2.8,0.6,3.4,2.5c0.4,1.2,0.2,2.5-0.4,3.6c-1,1.9-3,3-4.9,4.1
			c-43.9,24.2-77.3,67.9-89.5,116.8c-2.2,8.8-2.2,19.4-2.3,30.6c0,8.5-0.1,17.4-1.1,25.4c-1.6,12.4-13,21.2-25.4,19.6
			C242.8,298.5,241.6,298.3,240.5,297.9L240.5,297.9z M160.1,2.7c-3.3,0.1-6.5,0.4-9.5,0.6C144.5,4,138.4,4.2,132.3,4
			c-8.6-0.4-18.3-0.8-27.1,2C95.6,9.1,87.6,15.9,81,22c-7.2,6.6-13.7,13.9-19.5,21.8c-13.9,18.9-20.7,39.9-19.6,60.8
			c1.1,21.5,11.2,41.5,19.9,56.5c21.8,37.6,49.9,70,81.4,93.6c13.3,10,27.5,18.7,42.5,25.8c10.7,5,22,8.5,33.6,10.7l0,0
			c5,1.1,9.9,2.5,14.7,4.1c2.2,0.7,4.5,1.4,6.7,2c11.7,3.5,24.1-3.2,27.6-15c0.3-1.1,0.6-2.2,0.7-3.4c1.1-8,1.1-16.8,1.1-25.3
			c0-11.3,0.1-21.9,2.3-30.7c12.2-49,45.8-92.8,89.8-117.1c1.8-1,3.7-2,4.7-3.8c0.5-1,0.6-2.1,0.3-3.2c-0.5-1.6-1.7-1.9-3-2.1
			c-10.9-2.3-21.3-6.3-30.8-12c-8.6-5.1-16.5-11.6-24.2-17.8c-4.2-3.4-8.6-7-13-10.3c-15.5-11.5-28.8-17.4-41.7-18.4
			c-2.6-0.2-7-0.8-11.6-1.5c-3.4-0.5-7-1-10.1-1.4c-9.2-1.1-18.2-3.1-26.9-6c-14-4.7-22.9-10.5-31.7-20.6c-3.3-3.9-8.2-6.1-13.3-6.1
			L160.1,2.7z"/>
		
			<linearGradient id="SVGID_5_" gradientUnits="userSpaceOnUse" x1="335.8995" y1="28.2484" x2="652.4968" y2="28.2484" gradientTransform="matrix(1 0 0 -1 -290.69 178.21)">
			<stop  offset="0" style="stop-color:#CA92C1"/>
			<stop  offset="1" style="stop-color:#72CDDF"/>
		</linearGradient>
		<path class="st3" d="M238,293.2c-2.2-0.6-4.5-1.3-6.7-2c-5.3-1.6-10.2-3-14.1-3.7l0,0c-11.2-2-22.2-5.4-32.5-10.2
			c-14.5-6.9-28.3-15.2-41.1-24.9c-16-12.1-30.7-25.9-43.8-41.1c-13.1-15.3-24.8-31.7-35-49.2c-5-8.4-9.4-17.2-13-26.3
			c-3.6-9-5.8-18.6-6.5-28.3C44.7,96.9,46,86.2,49.2,76c3.2-10.5,8.3-20.3,14.9-29c5.9-7.7,12.6-14.8,19.8-21.3
			C90.9,19.3,98.7,13,108,10c8.8-2.9,18.3-2.6,26.7-2.4c5.8,0.1,11.7-0.2,17.5-0.9c3.1-0.3,6.4-0.6,9.8-0.8c2.6-0.1,5.2,0.3,7.6,1.4
			c2.4,1,4.5,2.5,6.2,4.4c8.5,9.4,17.1,14.8,30.6,19.3c8.5,2.7,17.2,4.6,26,5.6c3.2,0.4,6.7,0.9,10.2,1.4c4.3,0.6,8.4,1.2,10.9,1.4
			c7.4,0.7,14.7,2.7,21.4,6.1c6.8,3.3,13.2,7.3,19.1,11.9c4.8,3.6,9.4,7.5,13.8,11.2c7,5.9,14.2,11.9,21.8,16.8
			c8.9,5.7,18.7,9.8,29,12.3h0c1.2,0.3,2.5,0.6,3,2.3c0.3,1.1,0.2,2.3-0.3,3.4c-1,1.8-2.8,2.9-4.6,3.9h-0.1
			c-10.6,6-20.5,13.2-29.6,21.2c-9.2,8.1-17.5,17.1-24.9,26.9c-7.4,9.8-13.9,20.2-19.3,31.2c-5.4,11-9.7,22.5-12.8,34.4
			c-2.2,8.5-2.4,18.7-2.6,29.5c-0.2,8.3-0.3,16.8-1.5,24.6c-0.5,3.2-1.6,6.2-3.4,8.9C257.3,292,247.4,295.8,238,293.2L238,293.2z
			 M161.9,6c-3.4,0.2-6.6,0.5-9.8,0.8c-5.8,0.7-11.7,0.9-17.5,0.9c-8.4-0.2-17.9-0.5-26.7,2.4c-9.3,3.1-17,9.4-24,15.7
			C76.7,32.2,70.1,39.3,64.2,47c-6.6,8.7-11.7,18.5-14.9,29c-3.2,10.2-4.4,20.9-3.8,31.5c0.7,9.7,2.9,19.2,6.5,28.3
			c3.6,9.1,7.9,17.9,12.9,26.3c10.1,17.4,21.8,33.9,35,49.2c13.1,15.2,27.8,29,43.8,41.1c12.8,9.7,26.6,18,41.1,24.8
			c10.4,4.8,21.3,8.2,32.5,10.2c3.9,0.7,8.9,2.2,14.1,3.7c2.2,0.6,4.5,1.3,6.7,2c3.1,0.9,6.3,1.1,9.5,0.5c9.5-1.5,17-9,18.4-18.6
			c1.2-7.8,1.3-16.3,1.5-24.6c0.2-10.8,0.4-21,2.6-29.5c3.1-11.9,7.4-23.4,12.8-34.4c10.8-22.1,25.8-41.8,44.2-58.1
			c9.1-8.1,19-15.2,29.6-21.2h0.1c1.8-1,3.6-2.1,4.5-3.9c0.5-1,0.7-2.2,0.3-3.3c-0.5-1.7-1.8-2-3-2.3l0,0
			c-10.3-2.5-20.1-6.6-29-12.3c-7.7-4.9-14.9-10.9-21.8-16.8c-4.5-3.8-9.1-7.6-13.8-11.2c-6-4.6-12.4-8.6-19.1-11.9
			c-6.7-3.3-13.9-5.3-21.3-6c-2.5-0.2-6.6-0.8-10.9-1.4c-3.4-0.5-7-1-10.2-1.4c-8.8-1-17.5-2.9-26-5.6c-13.5-4.5-22.1-9.9-30.7-19.3
			c-1.7-1.9-3.8-3.4-6.2-4.4c-2.1-0.9-4.4-1.4-6.8-1.4L161.9,6z"/>
		
			<linearGradient id="SVGID_6_" gradientUnits="userSpaceOnUse" x1="339.6669" y1="28.769" x2="646.7053" y2="28.769" gradientTransform="matrix(1 0 0 -1 -290.69 178.21)">
			<stop  offset="0" style="stop-color:#CA92C1"/>
			<stop  offset="1" style="stop-color:#72CDDF"/>
		</linearGradient>
		<path class="st4" d="M235.5,288.7c-2.2-0.6-4.5-1.2-6.7-1.9c-5-1.4-9.8-2.8-13.5-3.4c-10.9-1.8-21.4-5.1-31.4-9.7
			c-14-6.6-27.3-14.6-39.7-23.9c-15.5-11.6-29.7-24.9-42.3-39.5c-12.7-14.7-24-30.5-33.8-47.3c-4.8-8.1-9-16.6-12.5-25.4
			c-3.5-8.7-5.6-17.9-6.4-27.2c-0.8-10.5,0.3-21.1,3.2-31.3c2.9-10.5,7.9-20.3,14.6-28.9c6-7.5,12.7-14.4,20-20.7
			c7-6.2,14.8-12.4,23.8-15.4c8.7-2.9,18.4-2.8,26.2-2.8c5.6,0,11.2-0.4,16.8-1.1c3.2-0.4,6.5-0.7,10-0.9c2.5-0.1,5,0.3,7.3,1.2
			c2.3,0.9,4.3,2.3,6,4.1c8.3,8.8,16.6,13.9,29.7,18.1c8.2,2.6,16.6,4.3,25.2,5.3c3.2,0.4,6.7,0.9,10.2,1.4c4,0.6,7.8,1.1,10.2,1.3
			c7.2,0.7,14.2,2.7,20.7,5.9c6.5,3.2,12.7,7.1,18.5,11.5c5.2,3.9,10.1,8.2,14.9,12.4c6.2,5.4,12.6,10.9,19.3,15.5
			c8.3,5.7,17.6,10,27.3,12.7h0c1.1,0.3,2.3,0.6,2.8,2.3c0.3,1.1,0.2,2.3-0.4,3.3c-0.9,1.8-2.7,2.8-4.3,3.8h-0.1
			c-10.1,6-19.6,13-28.3,20.9c-8.8,7.9-16.8,16.7-23.9,26.2c-7.2,9.5-13.4,19.6-18.7,30.3c-5.3,10.6-9.5,21.8-12.6,33.2
			c-2.2,8.2-2.5,18-2.9,28.3c-0.3,8-0.6,16.3-1.8,23.9c-0.5,3.1-1.7,6-3.4,8.6c-3.4,5-8.7,8.5-14.7,9.5c-1.2,0.2-2.4,0.3-3.6,0.3
			C239.2,289.4,237.3,289.2,235.5,288.7z M163.8,9.5c-3.4,0.2-6.8,0.6-10,0.9c-5.3,0.7-10.6,1-15.9,1.1H137
			c-7.8-0.1-17.5-0.2-26.2,2.8c-9,3-16.8,9.2-23.8,15.4c-7.3,6.3-14,13.2-20,20.7c-6.7,8.6-11.7,18.4-14.6,28.9
			c-2.9,10.2-3.9,20.7-3.2,31.2c0.7,9.3,2.9,18.5,6.4,27.2c3.5,8.8,7.7,17.2,12.5,25.3c9.8,16.8,21.1,32.6,33.8,47.3
			c12.7,14.7,26.8,27.9,42.3,39.5c12.4,9.3,25.7,17.3,39.7,23.9c10,4.6,20.5,7.8,31.4,9.7l0,0c3.7,0.6,8.5,2,13.5,3.4
			c2.2,0.6,4.5,1.2,6.7,1.9c3,0.8,6.1,1,9.1,0.4c2.9-0.5,5.7-1.6,8.2-3.2c2.5-1.6,4.7-3.7,6.4-6.2c1.7-2.6,2.9-5.5,3.4-8.5
			c1.2-7.5,1.5-15.8,1.8-23.9c0.4-10.4,0.7-20.1,2.9-28.3c3.1-11.5,7.3-22.6,12.6-33.2c5.3-10.7,11.5-20.8,18.7-30.3
			c7.1-9.5,15.2-18.2,23.9-26.2c8.7-7.9,18.2-14.9,28.3-20.9h0.1c1.7-1,3.4-2,4.3-3.8c0.5-1,0.7-2.2,0.4-3.2c-0.5-1.7-1.6-2-2.8-2.3
			l0,0c-9.7-2.7-18.9-7-27.3-12.7c-6.7-4.8-13.2-10-19.3-15.5c-4.8-4.1-9.7-8.4-14.9-12.4c-5.7-4.5-11.9-8.3-18.5-11.5
			c-6.5-3.2-13.5-5.2-20.6-5.9c-2.4-0.2-6.2-0.7-10.2-1.3c-3.4-0.5-7-1-10.2-1.4c-8.5-1-17-2.7-25.2-5.3
			c-13.1-4.2-21.5-9.3-29.8-18.1c-1.7-1.8-3.7-3.2-6-4.1c-2-0.8-4.2-1.2-6.3-1.2L163.8,9.5z"/>
		
			<linearGradient id="SVGID_7_" gradientUnits="userSpaceOnUse" x1="343.1499" y1="29.2434" x2="641.0646" y2="29.2434" gradientTransform="matrix(1 0 0 -1 -290.69 178.21)">
			<stop  offset="0" style="stop-color:#CA92C1"/>
			<stop  offset="1" style="stop-color:#72CDDF"/>
		</linearGradient>
		<path class="st5" d="M232.9,284.4c-2.2-0.6-4.5-1.2-6.7-1.8c-4.8-1.3-9.3-2.5-12.9-3.1c-10.5-1.7-20.7-4.8-30.3-9.2
			c-13.5-6.3-26.4-14-38.3-22.9c-28.4-21.1-53.9-50-73.5-83.5c-14.9-25.4-17.6-41.1-18.4-50.6C51,90.5,57,69.2,69.7,53.4
			c5.2-6.5,11.4-12.7,20.2-20.2c6.6-5.6,14.4-11.9,23.6-15c8-2.7,16.5-3,25.8-3.1c5.4-0.1,10.8-0.5,16.1-1.3c3.3-0.4,6.7-0.8,10.2-1
			c4.9-0.3,9.7,1.5,13.1,5c8,8.2,16.1,13,28.7,16.9c7.9,2.4,16,4.1,24.3,5c3.2,0.4,6.7,0.9,10.1,1.3c3.7,0.5,7.3,1,9.5,1.2
			c12.1,1.1,24.5,6.6,37.9,16.9c5.5,4.2,10.7,8.9,15.7,13.4c5.4,5.1,11.1,9.9,17,14.4c7.8,5.7,16.4,10.1,25.5,13.1
			c1.3,0.2,2.4,1.2,2.8,2.5c0.3,1.1,0.2,2.4-0.4,3.4c-0.9,1.8-2.6,2.8-4.2,3.8l-0.1,0.1c-19.4,12-36.3,27.6-49.9,45.9
			c-13.8,18.4-24.1,39.2-30.5,61.3c-2.2,7.9-2.7,17.2-3.2,27.1c-0.4,7.8-0.8,15.8-2.2,23.1c-2,10.4-11,17.9-21.6,17.9
			C236.4,285.1,234.6,284.9,232.9,284.4z M165.7,13.3c-3.5,0.2-6.9,0.6-10.1,1c-5.4,0.7-10.8,1.2-16.2,1.3
			c-9.3,0.1-17.7,0.4-25.6,3.1c-9.1,3.1-16.9,9.4-23.5,15c-8.7,7.5-14.9,13.7-20.1,20.1c-12.6,15.7-18.6,36.8-16.8,59.6
			c0.8,9.5,3.5,25.1,18.3,50.4c19.6,33.5,45,62.3,73.4,83.4c11.9,8.9,24.7,16.5,38.2,22.8c9.6,4.4,19.8,7.5,30.2,9.2l0,0.3l0-0.3
			c3.6,0.6,8.1,1.8,12.9,3.1c2.2,0.6,4.5,1.2,6.7,1.8c11.5,2.8,23.1-4.3,25.9-15.8c0.1-0.4,0.2-0.7,0.2-1.1
			c1.3-7.3,1.8-15.3,2.2-23.1c0.5-9.9,1-19.3,3.2-27.2c6.4-22.2,16.7-43,30.6-61.5c13.7-18.3,30.6-33.9,50.1-46l0.1-0.1
			c1.6-0.8,3-2,4-3.6c0.5-0.9,0.6-2,0.4-3c-0.4-1.5-1.4-1.8-2.5-2.1c-9.2-3-17.8-7.4-25.6-13.1c-5.9-4.5-11.6-9.3-17-14.4
			c-5-4.5-10.2-9.2-15.6-13.4c-13.3-10.2-25.7-15.7-37.6-16.8c-2.3-0.2-5.8-0.7-9.6-1.2c-3.4-0.5-6.9-1-10.1-1.3
			c-8.3-0.9-16.4-2.6-24.4-5c-12.7-3.9-20.9-8.7-29-17c-3.1-3.1-7.2-4.9-11.6-4.9L165.7,13.3z"/>
		
			<linearGradient id="SVGID_8_" gradientUnits="userSpaceOnUse" x1="347.1501" y1="29.7903" x2="635.0049" y2="29.7903" gradientTransform="matrix(1 0 0 -1 -290.69 178.21)">
			<stop  offset="0" style="stop-color:#CA92C1"/>
			<stop  offset="1" style="stop-color:#72CDDF"/>
		</linearGradient>
		<path class="st6" d="M230.5,279.7c-2.3-0.5-4.6-1.1-6.8-1.7c-4.5-1.1-8.8-2.2-12.2-2.8c-10-1.6-19.8-4.5-29.1-8.7
			c-13-6-25.4-13.3-36.9-21.9c-14.4-10.7-27.6-22.9-39.4-36.4c-11.8-13.5-22.4-28.1-31.5-43.6c-4.5-7.5-8.4-15.3-11.6-23.4
			c-3.3-8-5.3-16.5-6.2-25.1c-1.5-16.5,0-40.2,15.9-59.3c6.4-7.8,13.9-14.3,20.4-19.6s14.4-11.5,23.3-14.6
			c7.9-2.8,16.1-3.2,25.2-3.5c5.2-0.2,10.3-0.7,15.5-1.5c3.3-0.4,6.8-0.9,10.4-1.2c0.4,0,0.8,0,1.2,0c4.2,0,8.2,1.7,11.3,4.6
			c3.7,3.7,7.9,6.9,12.4,9.4c4.9,2.7,10.1,4.8,15.5,6.3c7.7,2.2,15.5,3.8,23.5,4.6c3.2,0.4,6.7,0.9,10.1,1.3s6.7,0.9,8.9,1.1
			c6.7,0.7,13.2,2.6,19.3,5.6c6.1,3,11.8,6.6,17.2,10.8c5.8,4.5,11.2,9.6,16.3,14.5c5,4.7,9.7,9.2,14.8,13.2
			c7.2,5.7,15.2,10.2,23.8,13.5l0,0c1.2,0.3,2.1,1.2,2.4,2.4c0.3,1.1,0.1,2.2-0.4,3.1c-1,1.5-2.3,2.8-3.9,3.6l-0.1,0.1
			c-9.2,5.9-17.8,12.6-25.8,20.1c-8,7.6-15.4,15.9-22,24.8c-6.6,8.9-12.5,18.4-17.5,28.4c-5,9.9-9.1,20.3-12.2,30.9
			c-2.2,7.6-2.9,16.5-3.5,26c-0.5,7.5-1.1,15.3-2.5,22.4c-0.6,2.8-1.7,5.5-3.4,7.9c-3.3,4.6-8.2,7.8-13.8,8.9
			c-1.3,0.2-2.5,0.3-3.8,0.4C233.6,280.3,232,280.1,230.5,279.7z M167.5,16.6c-3.6,0.3-7,0.7-10.4,1.2c-5.1,0.8-10.3,1.3-15.5,1.5
			c-9.1,0.2-17.3,0.7-25.2,3.4c-8.9,3.1-16.7,9.2-23.3,14.6c-6.5,5.3-13.9,11.8-20.3,19.6C57,76,55.5,99.7,57,116.2
			c0.9,8.6,2.9,17.1,6.2,25.1c3.3,8.1,7.1,15.9,11.6,23.4c9.1,15.5,19.6,30.1,31.4,43.6c11.8,13.5,25,25.7,39.4,36.4
			c11.5,8.5,23.8,15.9,36.8,21.8c9.3,4.2,19,7.1,29.1,8.7l0,0c3.4,0.5,7.7,1.6,12.2,2.8c2.2,0.6,4.5,1.1,6.8,1.7
			c2.8,0.7,5.7,0.7,8.5,0.2c5.6-1,10.5-4.2,13.8-8.9c1.7-2.4,2.8-5.1,3.4-7.9c1.4-7,2-14.8,2.5-22.4c0.7-9.5,1.3-18.4,3.5-26
			c3.1-10.7,7.2-21,12.2-31c5-9.9,10.9-19.5,17.5-28.4c6.6-8.9,14-17.2,22-24.8c7.9-7.5,16.6-14.2,25.8-20.1l0.1-0.1
			c1.6-0.8,3-2.1,3.9-3.6c0.5-1,0.6-2.1,0.4-3.1c-0.3-1.2-1.2-2.1-2.4-2.3l0,0c-8.6-3.3-16.7-7.8-23.9-13.5
			c-5.1-4-9.8-8.5-14.8-13.2c-5.2-4.9-10.5-10-16.3-14.5c-5.3-4.2-11.1-7.8-17.1-10.8c-6-3-12.6-4.8-19.2-5.5
			c-2.1-0.2-5.4-0.7-8.9-1.1s-6.9-1-10.1-1.3c-8-0.8-15.8-2.4-23.5-4.6c-5.4-1.5-10.6-3.6-15.5-6.3c-4.6-2.6-8.8-5.8-12.5-9.4
			c-3-2.9-7-4.6-11.2-4.6C168.3,16.5,167.9,16.6,167.5,16.6L167.5,16.6z"/>
		
			<linearGradient id="SVGID_9_" gradientUnits="userSpaceOnUse" x1="350.7997" y1="30.3753" x2="629.2951" y2="30.3753" gradientTransform="matrix(1 0 0 -1 -290.69 178.21)">
			<stop  offset="0" style="stop-color:#CA92C1"/>
			<stop  offset="1" style="stop-color:#72CDDF"/>
		</linearGradient>
		<path class="st7" d="M228,275.2c-2.3-0.5-4.6-1-6.9-1.6c-4.2-1-8.2-1.9-11.5-2.4l0,0c-9.7-1.4-19.1-4.2-28-8.2
			c-12.5-5.7-24.4-12.7-35.4-20.9c-13.8-10.2-26.5-21.9-37.9-34.8c-11.4-13-21.5-26.9-30.3-41.8c-10.3-17.4-15.8-32.2-17.3-46.4
			C59.6,109,60,98.7,62,88.7c2.1-10.5,6.8-20.3,13.7-28.6c5.9-6.9,12.5-12.6,20.5-19c6.9-5.6,14.4-11.2,23-14.3
			c7.9-2.8,16.2-3.4,24.8-3.8c4.9-0.3,9.9-0.9,14.8-1.7c3.6-0.5,6.9-1,10.6-1.4c0.4,0,0.9-0.1,1.3-0.1c4,0,7.8,1.5,10.7,4.2
			c3.6,3.4,7.7,6.4,12.1,8.7c4.8,2.5,9.8,4.4,15,5.8c7.4,2.1,15,3.5,22.6,4.3c3.2,0.4,6.9,0.9,10.1,1.3s6.2,0.9,8.2,1.1
			c6.4,0.7,12.7,2.5,18.6,5.4c5.9,2.9,11.4,6.4,16.5,10.4c6,4.8,11.6,10,17,15.6c4.3,4.3,8.4,8.3,12.8,12
			c6.7,5.7,14.1,10.3,22.1,13.9h0c1.1,0.3,2,1.2,2.2,2.4c0.2,1,0.1,2.1-0.4,3.1c-0.9,1.5-2.2,2.7-3.7,3.5l-0.1,0.1
			c-8.7,5.8-16.9,12.4-24.5,19.7c-7.7,7.4-14.7,15.5-21,24.1c-6.4,8.7-12,17.9-16.9,27.5c-4.8,9.6-8.9,19.5-12,29.8
			c-2.2,7.3-3,15.8-3.9,24.8c-0.5,7.3-1.5,14.5-3,21.6c-0.6,2.7-1.8,5.3-3.4,7.6c-1.6,2.2-3.6,4.1-5.9,5.6c-2.3,1.5-4.8,2.5-7.5,3
			C233.5,275.8,230.7,275.8,228,275.2L228,275.2z M169.4,20.1c-3.6,0.3-7,0.8-10.5,1.4c-4.9,0.8-9.8,1.4-14.8,1.6
			c-8.6,0.4-16.9,1-24.7,3.8c-8.6,3.1-16.1,8.7-23,14.3c-8.1,6.5-14.7,12.2-20.5,19c-6.9,8.2-11.6,18-13.7,28.5
			c-2,10-2.4,20.2-1.2,30.4c1.5,14.2,7,29,17.3,46.4c8.8,14.9,18.9,28.9,30.3,41.8c11.3,12.9,24,24.6,37.9,34.8
			c11,8.2,22.9,15.2,35.4,20.8c8.9,4,18.3,6.7,27.9,8.2c3.2,0.5,7.3,1.4,11.5,2.4c2.2,0.5,4.6,1.1,6.9,1.6c2.7,0.6,5.5,0.6,8.2,0.1
			c5.4-1.1,10.1-4.1,13.4-8.6c1.6-2.3,2.8-4.8,3.4-7.5c1.5-6.8,2.2-14.4,2.9-21.6c0.8-9,1.6-17.5,3.9-24.8
			c3.1-10.3,7.2-20.2,12-29.8c4.9-9.6,10.5-18.8,16.9-27.4c6.3-8.6,13.3-16.7,21-24.1c7.5-7.3,15.7-13.9,24.5-19.7l0.1-0.1
			c1.5-0.8,2.8-2,3.7-3.5c0.5-0.9,0.6-2,0.4-3c-0.2-1.1-1.1-2-2.2-2.3h0c-8-3.5-15.5-8.2-22.1-13.9c-4.4-3.7-8.4-7.7-12.8-12
			c-5.3-5.5-11-10.7-17-15.6c-5.1-4.1-10.6-7.6-16.4-10.5c-5.8-2.8-12.1-4.7-18.5-5.4c-2-0.2-5-0.6-8.2-1.1s-6.9-1-10.1-1.3
			c-7.7-0.8-15.2-2.3-22.6-4.3c-5.2-1.4-10.2-3.4-15-5.8c-4.4-2.4-8.5-5.3-12.1-8.8c-2.9-2.7-6.7-4.2-10.6-4.2
			C170.3,20,169.8,20.1,169.4,20.1z"/>
		
			<linearGradient id="SVGID_10_" gradientUnits="userSpaceOnUse" x1="354.2295" y1="30.9199" x2="623.6396" y2="30.9199" gradientTransform="matrix(1 0 0 -1 -290.69 178.21)">
			<stop  offset="0" style="stop-color:#CA92C1"/>
			<stop  offset="1" style="stop-color:#72CDDF"/>
		</linearGradient>
		<path class="st8" d="M225.4,271c-2.4-0.5-4.7-1-7-1.5c-4-0.9-7.7-1.7-10.8-2.1l0,0c-9.3-1.3-18.3-3.9-26.9-7.7
			c-12-5.4-23.4-12.1-34-19.9c-25.3-18.5-48-43.8-65.6-73.3C71.4,150,66,135.8,64.4,122c-3-25.4,1.6-44.6,14-58.7
			c6.3-7.2,13.7-13.1,20.8-18.5c7.3-5.6,14.5-10.9,22.8-14c7.8-2.9,16-3.6,24.3-4.2c5.1-0.4,9.7-1.1,14.1-1.8
			c3.6-0.6,7.1-1.2,10.8-1.5c4.3-0.4,8.6,1,11.8,3.8c7.2,6.4,14.8,10.2,26,13.3c7.1,1.9,14.4,3.3,21.8,4c3.2,0.4,6.9,0.9,10.1,1.3
			c2.9,0.4,5.6,0.8,7.5,1c11,1.1,22.4,6.3,33.8,15.3c6.4,5.1,12.1,11,17.5,16.7c3.6,3.8,7.1,7.4,10.7,10.8
			c6.1,5.6,13,10.4,20.4,14.2c1.1,0.4,1.9,1.4,2.1,2.5c0.2,1.1,0,2.2-0.5,3.2c-0.9,1.5-2.1,2.7-3.6,3.5l-0.1,0.1
			c-32.5,22.5-58.5,58.1-71.2,97.7c-2.2,6.9-3.2,15-4.2,23.6c-0.7,7-1.8,14-3.3,20.9c-2.4,9.5-10.9,16.1-20.6,16.2
			C228,271.4,226.7,271.2,225.4,271z M171.3,23.9c-3.7,0.4-7.1,0.9-10.7,1.5c-4.4,0.7-9,1.5-14.1,1.8c-8.3,0.6-16.4,1.3-24.2,4.1
			c-8.2,3-15.4,8.3-22.7,13.9c-7,5.4-14.4,11.3-20.7,18.4C66.5,77.7,62,96.7,64.9,122c1.6,13.7,6.9,27.8,16.8,44.3
			c17.5,29.4,40.1,54.7,65.4,73.1c10.6,7.8,22,14.4,33.9,19.8c8.5,3.8,17.5,6.4,26.7,7.7l0,0c3.1,0.4,6.8,1.2,10.8,2.1
			c2.3,0.5,4.7,1,7,1.5c10.8,2,21.3-4.7,24-15.4c1.5-6.9,2.6-13.8,3.3-20.8c1-8.6,1.9-16.7,4.2-23.7c12.8-39.7,38.8-75.4,71.5-98
			l0.1-0.1c1.4-0.8,2.6-1.9,3.4-3.3c0.4-0.9,0.6-1.9,0.4-2.8c-0.2-1-0.9-1.8-1.9-2.2c-7.4-3.8-14.3-8.6-20.5-14.3
			c-3.7-3.4-7.1-7-10.8-10.8c-5.4-5.7-11-11.6-17.4-16.6c-11.3-9-22.6-14.1-33.5-15.2c-1.9-0.2-4.6-0.6-7.5-1
			c-3.2-0.4-6.9-1-10.1-1.3c-7.4-0.7-14.7-2.1-21.9-4c-11.3-3.1-19-7-26.3-13.5c-2.8-2.4-6.3-3.7-9.9-3.7
			C172.2,23.8,171.7,23.8,171.3,23.9z"/>
		
			<linearGradient id="SVGID_11_" gradientUnits="userSpaceOnUse" x1="357.943" y1="31.4274" x2="617.5749" y2="31.4274" gradientTransform="matrix(1 0 0 -1 -290.69 178.21)">
			<stop  offset="0" style="stop-color:#CA92C1"/>
			<stop  offset="1" style="stop-color:#72CDDF"/>
		</linearGradient>
		<path class="st9" d="M222.9,266.3c-2.4-0.4-4.8-0.9-7.2-1.4c-3.6-0.7-7.1-1.4-10-1.8l0,0c-8.8-1.2-17.5-3.6-25.7-7.2
			c-11.5-5.1-22.4-11.4-32.6-18.9c-12.7-9.3-24.4-19.9-34.9-31.7c-10.5-11.8-19.8-24.6-27.9-38.1c-4-6.5-7.4-13.4-10.4-20.5
			c-2.9-7-4.9-14.4-5.9-21.9c-1.5-11.5-1.5-21.2-0.1-29.8c0.8-5.1,2.3-10.1,4.3-14.8c2.2-4.9,5.2-9.5,8.8-13.5
			C88,59.6,96,53.6,102.4,48.9c6.2-4.6,13.9-10.4,22.5-13.6c7.7-2.9,16-3.8,23.8-4.5c4.8-0.4,9.2-1.2,13.4-2c3.7-0.7,7.2-1.3,11-1.7
			c4-0.4,8,0.8,11.2,3.3c3.5,2.9,7.3,5.4,11.4,7.3c4.5,2.1,9.1,3.7,13.9,4.9c6.9,1.7,13.9,3,21,3.7c3.2,0.3,6.9,0.9,10.1,1.3
			c2.6,0.4,5,0.7,6.8,0.9c10.7,1.1,21.5,6.1,32.3,14.8c6.7,5.4,12.4,11.7,17.9,17.9c3,3.4,5.8,6.5,8.8,9.5
			c5.6,5.6,11.9,10.6,18.7,14.6l0,0c1,0.4,1.6,1.3,1.8,2.4c0.2,1,0,2-0.5,2.9c-0.8,1.4-2,2.5-3.3,3.4l-0.1,0.1
			c-7.8,5.7-15.2,12-21.9,18.9c-6.9,7.1-13.3,14.6-19.1,22.7c-5.8,8.1-11.1,16.7-15.7,25.5c-4.6,8.9-8.5,18-11.7,27.5
			c-2.2,6.6-3.3,14.3-4.5,22.4c-0.8,6.8-2,13.5-3.7,20.1c-2.6,9-10.8,15.3-20.2,15.4C225.2,266.6,224,266.5,222.9,266.3z
			 M173.1,27.1c-3.8,0.4-7.3,1.1-11,1.7c-4.2,0.8-8.6,1.6-13.4,2c-7.8,0.7-16.1,1.6-23.8,4.5c-8.6,3.2-16.3,8.9-22.5,13.6
			c-6.4,4.8-14.4,10.7-20.9,17.9c-3.6,4-6.6,8.6-8.8,13.5c-2.1,4.7-3.5,9.7-4.3,14.8c-1.4,8.6-1.4,18.3,0.1,29.8
			c1,7.5,3,14.9,5.9,21.9c2.9,7.1,6.4,13.9,10.4,20.5c8.1,13.5,17.5,26.3,27.9,38.1c10.5,11.8,22.1,22.4,34.9,31.7
			c10.1,7.4,21.1,13.7,32.5,18.8c8.2,3.6,16.8,6,25.6,7.2c2.9,0.4,6.3,1.1,10,1.8c2.4,0.5,4.8,0.9,7.2,1.4c5.1,0.9,10.3-0.2,14.6-3
			c4.4-2.7,7.6-7,9-12c1.6-6.6,2.9-13.4,3.7-20.1c1.1-8.1,2.2-15.7,4.5-22.4c3.2-9.5,7-18.7,11.6-27.5c4.6-8.9,9.8-17.4,15.7-25.5
			c5.8-8,12.1-15.6,19.1-22.7c6.8-6.9,14.1-13.2,21.9-18.9l0.1-0.1c1.4-0.8,2.5-2,3.3-3.3c0.4-0.9,0.6-1.9,0.4-2.9
			c-0.2-1-0.8-1.9-1.8-2.3l0,0c-6.8-4.1-13.1-9-18.7-14.7c-3-3-5.8-6.2-8.8-9.5c-5.5-6.1-11.2-12.5-17.9-17.9
			c-10.8-8.6-21.6-13.6-32.3-14.7c-1.7-0.2-4.2-0.5-6.8-0.9c-3.2-0.4-6.9-1-10.1-1.3c-7.1-0.7-14.1-1.9-21-3.7
			c-4.8-1.2-9.4-2.8-13.9-4.9c-4.1-2-7.9-4.4-11.4-7.3c-2.7-2.2-6-3.4-9.5-3.4C174.2,27.1,173.6,27.1,173.1,27.1z"/>
		
			<linearGradient id="SVGID_12_" gradientUnits="userSpaceOnUse" x1="361.5031" y1="31.9958" x2="611.8536" y2="31.9958" gradientTransform="matrix(1 0 0 -1 -290.69 178.21)">
			<stop  offset="0" style="stop-color:#CA92C1"/>
			<stop  offset="1" style="stop-color:#72CDDF"/>
		</linearGradient>
		<path class="st10" d="M220.4,261.8c-2.5-0.4-5-0.8-7.4-1.3c-3.3-0.6-6.5-1.1-9.1-1.5c-8.4-1.1-16.7-3.3-24.5-6.7
			c-11-4.8-21.4-10.8-31.1-17.9c-12.2-8.8-23.4-18.9-33.4-30.1c-10-11.2-19-23.4-26.8-36.2c-8.8-14.6-14-27.8-15.8-40.3
			c-2.6-18.1-3.6-41,12.1-57.7c6.3-6.8,13.8-12.1,21-17.3l0.1-0.1c6.9-5,14-10.1,22.2-13.2c7.7-2.9,15.7-4,23.3-4.9
			c4.6-0.5,8.7-1.4,12.7-2.1c3.8-0.8,7.3-1.5,11.1-1.9c3.8-0.5,7.7,0.6,10.7,2.9c6.9,5.3,13.9,8.5,24.4,11
			c6.6,1.6,13.3,2.7,20.1,3.4c3.3,0.3,7,0.9,10.2,1.3c2.3,0.3,4.4,0.6,6,0.8c10.4,1.2,20.8,5.9,30.9,14.2c7,5.7,12.7,12.5,18.2,19.1
			c2.4,2.9,4.7,5.6,7,8.2c5.1,5.6,10.8,10.6,17,15h0c0.9,0.5,1.5,1.4,1.6,2.4c0.1,1,0,2-0.5,2.9c-0.8,1.3-1.8,2.4-3.1,3.3l-0.1,0.1
			c-28.6,21.7-52.4,55.1-65.3,91.4c-2.2,6.3-3.4,13.5-4.7,21.1c-1,6.6-2.3,13.1-4.1,19.5c-1.5,4.8-4.6,8.8-8.8,11.5
			c-3.3,2.2-7.2,3.3-11.1,3.3C222.4,261.9,221.4,261.9,220.4,261.8z M175,30.7c-3.8,0.5-7.4,1.2-11.1,1.9c-4,0.8-8.2,1.6-12.8,2.1
			c-7.6,0.9-15.6,2-23.3,4.9c-8.2,3.1-15.3,8.2-22.2,13.2l-0.1,0.1c-7.2,5.2-14.6,10.5-21,17.3c-15.6,16.7-14.7,39.6-12.1,57.6
			c1.8,12.6,7,25.8,15.7,40.3c7.8,12.9,16.8,25,26.8,36.2c10,11.2,21.2,21.3,33.4,30.1c9.7,7.1,20.1,13.1,31.1,17.8
			c7.8,3.4,16.1,5.6,24.5,6.7l0,0c2.7,0.3,5.8,0.9,9.1,1.5c2.4,0.4,4.9,0.9,7.4,1.3c4.9,0.7,9.9-0.4,14-3.1
			c4.2-2.6,7.3-6.7,8.8-11.5c1.8-6.4,3.1-12.9,4.1-19.5c1.3-7.6,2.5-14.8,4.7-21.1c12.8-36.4,36.7-69.7,65.3-91.5l0.1-0.1
			c1.3-0.8,2.3-1.9,3.1-3.2c0.4-0.9,0.6-1.9,0.5-2.8c-0.1-1-0.7-1.8-1.6-2.3l0,0c-6.2-4.4-11.9-9.4-17-15c-2.3-2.6-4.6-5.3-7-8.2
			c-5.5-6.6-11.2-13.4-18.2-19.1c-10.2-8.3-20.6-13-30.9-14.2c-1.6-0.2-3.7-0.5-6-0.8c-3.2-0.4-6.9-1-10.2-1.3
			c-6.8-0.7-13.5-1.8-20.1-3.4c-10.5-2.6-17.5-5.8-24.4-11.1c-2.6-2-5.7-3-8.9-3C176.1,30.6,175.6,30.6,175,30.7z"/>
		
			<linearGradient id="SVGID_13_" gradientUnits="userSpaceOnUse" x1="364.9561" y1="32.5023" x2="606.0365" y2="32.5023" gradientTransform="matrix(1 0 0 -1 -290.69 178.21)">
			<stop  offset="0" style="stop-color:#CA92C1"/>
			<stop  offset="1" style="stop-color:#72CDDF"/>
		</linearGradient>
		<path class="st11" d="M217.9,257.3c-2.6-0.3-5.2-0.8-7.8-1.1c-3-0.5-5.7-0.9-8.2-1.2l0,0c-8-0.9-15.9-3-23.4-6.2
			c-10.5-4.5-20.4-10.2-29.7-16.9c-11.6-8.3-22.3-17.9-31.9-28.5c-9.6-10.6-18.2-22.2-25.6-34.4c-8.3-13.7-13.3-26.2-15.2-38.3
			c-1.4-8.7-2.6-18.9-1.4-29.2c0.5-5.1,1.8-10,3.8-14.7c2.1-5,5.1-9.5,8.8-13.3c6.1-6.4,13.3-11.3,20.2-16.1l1.6-1.1
			c6.7-4.6,13.7-9.4,21.4-12.5c7.6-3,15.4-4.2,22.8-5.2c4.3-0.6,8.2-1.4,12.1-2.3s7.4-1.6,11.3-2.2c3.6-0.5,7.3,0.4,10.3,2.5
			c6.6,4.7,13.4,7.5,23.5,9.9c6.3,1.4,12.8,2.4,19.3,3c3.3,0.3,7,0.9,10.3,1.3c2,0.3,3.8,0.5,5.2,0.7c5.5,0.7,10.8,2.3,15.7,4.7
			c5,2.4,9.6,5.5,13.8,9c7.3,6,13,13.4,18.5,20.4c1.8,2.3,3.5,4.6,5.3,6.7c4.6,5.6,9.7,10.8,15.3,15.4l0,0c0.8,0.5,1.3,1.4,1.4,2.4
			c0.1,1-0.1,1.9-0.5,2.8c-0.7,1.3-1.7,2.4-2.9,3.2l-0.1,0.1c-6.9,5.6-13.4,11.6-19.3,18.2c-6.2,6.7-11.9,13.8-17.1,21.3
			c-5.3,7.6-10.1,15.5-14.4,23.7c-4.3,8.1-8.1,16.5-11.3,25.2c-2.2,6-3.5,12.7-5,19.8c-1.1,6.4-2.6,12.7-4.5,18.8
			c-1.6,4.5-4.6,8.4-8.7,10.9c-3.3,2.1-7.1,3.3-11,3.3C219.6,257.4,218.8,257.4,217.9,257.3z M176.8,34.2c-3.9,0.5-7.5,1.3-11.3,2.1
			s-7.8,1.7-12.1,2.3c-7.4,1-15.2,2.3-22.8,5.2c-7.8,3-14.7,7.8-21.4,12.4l-1.6,1.1c-6.9,4.8-14.1,9.7-20.2,16.1
			c-3.7,3.9-6.7,8.4-8.8,13.3c-1.9,4.7-3.2,9.6-3.8,14.7c-1.2,10.2,0.1,20.5,1.5,29.2c1.9,12.1,6.9,24.6,15.2,38.3
			c7.4,12.2,16,23.8,25.6,34.4c9.6,10.6,20.3,20.2,31.9,28.5c9.2,6.7,19.2,12.4,29.7,16.9c7.4,3.2,15.3,5.3,23.4,6.2
			c2.4,0.3,5.2,0.7,8.2,1.2c2.5,0.4,5.2,0.8,7.8,1.1c4.7,0.6,9.5-0.5,13.5-3.1c4-2.5,7.1-6.4,8.6-10.9c1.9-6.2,3.4-12.5,4.5-18.8
			c1.4-6.8,2.7-13.9,5-19.8c3.2-8.6,7-17,11.3-25.2c4.3-8.2,9.1-16.1,14.4-23.6c5.2-7.5,11-14.6,17.1-21.3
			c6-6.5,12.5-12.6,19.3-18.2l0.1-0.1c1.2-0.8,2.2-1.9,2.9-3.2c0.4-0.9,0.6-1.8,0.5-2.8c-0.1-0.9-0.6-1.8-1.3-2.3h0
			c-5.5-4.7-10.6-9.8-15.2-15.4c-1.8-2.2-3.5-4.4-5.3-6.7c-5.5-7.1-11.1-14.4-18.4-20.4c-4.2-3.5-8.9-6.6-13.8-9
			c-4.9-2.4-10.3-4-15.7-4.7c-1.4-0.2-3.2-0.4-5.2-0.7c-3.3-0.5-7-1-10.3-1.3c-6.5-0.6-12.9-1.6-19.3-3c-10.1-2.3-16.9-5.2-23.5-9.9
			c-2.4-1.7-5.4-2.6-8.4-2.6C178.1,34.1,177.5,34.1,176.8,34.2L176.8,34.2z"/>
		
			<linearGradient id="SVGID_14_" gradientUnits="userSpaceOnUse" x1="368.313" y1="33.0307" x2="600.1829" y2="33.0307" gradientTransform="matrix(1 0 0 -1 -290.69 178.21)">
			<stop  offset="0" style="stop-color:#CA92C1"/>
			<stop  offset="1" style="stop-color:#72CDDF"/>
		</linearGradient>
		<path class="st12" d="M215.4,252.8c-2.8-0.3-5.6-0.7-8.2-1s-5-0.7-7.1-0.9c-7.6-0.8-15.1-2.7-22.2-5.7c-10-4.2-19.5-9.5-28.3-15.9
			c-11.1-7.9-21.3-16.9-30.4-27c-9.2-10.1-17.3-21-24.4-32.5c-3.5-5.6-6.5-11.5-9.1-17.5c-2.6-6-4.4-12.3-5.6-18.7
			c-1.6-9.3-3-19.2-2.1-28.9c0.4-5,1.6-10,3.5-14.7c2-5,5-9.5,8.8-13.2c6-6,13-10.6,19.7-15.1c0.6-0.4,1.2-0.8,1.8-1.2l1.3-0.9
			c6.4-4.3,13.1-8.7,20.4-11.6c7.6-3,15.5-4.5,22.3-5.6c4-0.7,7.8-1.6,11.4-2.4c3.9-0.9,7.6-1.8,11.5-2.4c3.4-0.5,6.9,0.3,9.9,2.1
			c6.4,4.1,12.9,6.6,22.5,8.7c6.1,1.2,12.2,2.1,18.4,2.7c3.4,0.3,7.1,0.9,10.4,1.3c1.6,0.2,3.2,0.4,4.4,0.6c5.2,0.7,10.3,2.2,15,4.6
			c4.7,2.3,9.1,5.2,13.2,8.6c7.6,6.4,13.2,14.3,18.6,21.9c1.3,1.8,2.5,3.5,3.7,5.1c4.1,5.6,8.6,10.9,13.5,15.9l0,0
			c0.7,0.6,1.1,1.4,1.2,2.4c0.1,0.9-0.1,1.9-0.5,2.7c-0.7,1.2-1.6,2.3-2.7,3.1l-0.1,0.1c-6.4,5.5-12.5,11.5-18.1,17.8
			c-5.8,6.5-11.2,13.4-16.2,20.6c-5,7.3-9.7,14.9-13.8,22.7c-4.2,7.8-7.9,15.8-11.1,24c-2.2,5.6-3.7,12.2-5.2,18.5
			c-1.3,6.2-2.9,12.3-5,18.2c-3.1,8.1-10.8,13.5-19.5,13.7C216.7,252.9,216.1,252.8,215.4,252.8z M178.7,37.7
			c-4,0.6-7.6,1.5-11.5,2.4c-3.6,0.9-7.4,1.7-11.4,2.4c-6.8,1.1-14.8,2.6-22.3,5.6c-7.3,2.9-14,7.3-20.4,11.6l-1.3,0.9l-1.8,1.2
			c-6.7,4.4-13.7,9-19.7,15c-3.8,3.8-6.8,8.3-8.8,13.2c-1.9,4.7-3,9.6-3.5,14.6c-0.9,9.7,0.5,19.6,2.1,28.9
			c1.2,6.4,3.1,12.7,5.6,18.7c2.6,6.1,5.6,11.9,9.1,17.5c7.1,11.6,15.3,22.5,24.4,32.5c9.1,10.1,19.3,19.1,30.4,27
			c8.8,6.3,18.3,11.6,28.3,15.8c7.1,3,14.6,4.9,22.2,5.7l0,0c2.1,0.2,4.5,0.5,7.1,0.9s5.5,0.7,8.3,1c9,1,18.2-4.8,21.4-13.5
			c2.1-6,3.7-12.1,5-18.2c1.5-6.3,3-12.9,5.2-18.5c3.2-8.2,6.9-16.2,11.1-24c4.2-7.8,8.7-15.4,13.8-22.7c5-7.2,10.4-14.1,16.2-20.6
			c5.6-6.3,11.7-12.3,18.1-17.8l0.1-0.1c1.1-0.8,2-1.9,2.7-3.1c0.4-0.8,0.6-1.8,0.5-2.7c-0.1-0.9-0.5-1.7-1.2-2.3v-0.1
			c-4.9-4.9-9.4-10.2-13.6-15.8c-1.2-1.7-2.4-3.4-3.7-5.1c-5.4-7.6-11-15.5-18.6-21.9c-4-3.4-8.4-6.3-13.2-8.6
			c-4.7-2.3-9.8-3.9-15-4.5c-1.2-0.1-2.7-0.4-4.4-0.6c-3.3-0.5-7-1-10.4-1.3c-6.2-0.5-12.3-1.4-18.4-2.7c-9.7-2.1-16.2-4.6-22.6-8.7
			C185.6,38,182.1,37.2,178.7,37.7L178.7,37.7z"/>
		
			<linearGradient id="SVGID_15_" gradientUnits="userSpaceOnUse" x1="371.668" y1="33.5371" x2="594.4635" y2="33.5371" gradientTransform="matrix(1 0 0 -1 -290.69 178.21)">
			<stop  offset="0" style="stop-color:#CA92C1"/>
			<stop  offset="1" style="stop-color:#72CDDF"/>
		</linearGradient>
		<path class="st13" d="M212.9,248.3c-3-0.2-6-0.6-8.9-0.9c-2.1-0.2-4-0.5-5.8-0.6l0,0c-7.2-0.7-14.4-2.4-21.1-5.2
			c-9.5-3.9-18.5-8.9-26.9-14.9c-10.5-7.4-20.2-15.9-28.9-25.4c-8.7-9.5-16.5-19.8-23.3-30.7c-3.3-5.3-6.2-10.8-8.7-16.6
			c-2.4-5.7-4.3-11.6-5.5-17.7c-1.8-9.1-3.4-18.9-2.8-28.6c0.3-5,1.3-10,3.2-14.6c2-5,5-9.4,8.8-13.2c5.9-5.7,12.7-10,19.3-14.1
			l2.5-1.6l2.1-1.3c6.1-3.9,12.5-8,19.4-10.8c7.1-2.7,14.4-4.7,21.8-5.9c3.8-0.7,7.3-1.6,10.7-2.5c4-1,7.7-2,11.8-2.6
			c3.2-0.5,6.6,0.1,9.4,1.7c6.1,3.5,12.4,5.7,21.6,7.5c6.3,1.2,12.7,1.9,17.6,2.4c3.5,0.3,7.5,0.9,10.7,1.3l3.5,0.5
			c5,0.7,9.8,2.2,14.3,4.4c4.5,2.2,8.7,5,12.5,8.3c7.9,6.8,13.3,15.3,18.6,23.5l2.2,3.4c3.7,5.6,7.6,11,11.8,16.2l0,0.1
			c0.6,0.6,1,1.5,1,2.4c0.1,0.9-0.1,1.8-0.5,2.6c-0.6,1.2-1.5,2.2-2.5,3l-0.1,0.1c-12.1,11.2-22.8,23.7-32,37.3
			c-9.6,14-17.6,28.9-24.1,44.6c-2.1,5.6-3.9,11.3-5.3,17.1c-1.5,6-3.3,11.9-5.5,17.7c-1.7,4.1-4.6,7.5-8.4,9.8
			c-3.3,2.1-7.1,3.3-11,3.3C213.9,248.4,213.4,248.3,212.9,248.3z M180.5,41.2c-4,0.7-7.8,1.6-11.8,2.6c-3.4,0.9-6.9,1.8-10.7,2.5
			c-7.5,1.2-14.8,3.2-21.8,5.9c-6.9,2.8-13.2,6.8-19.4,10.8l-2.1,1.3l-2.5,1.6c-6.6,4.1-13.4,8.4-19.2,14.1
			c-3.8,3.7-6.8,8.2-8.8,13.1c-1.8,4.7-2.9,9.6-3.2,14.6c-0.6,9.7,1,19.4,2.8,28.6c1.2,6.1,3.1,12,5.5,17.6
			c2.5,5.7,5.4,11.2,8.7,16.5c6.8,10.9,14.6,21.2,23.3,30.7c8.7,9.5,18.4,18,28.9,25.4c8.4,6,17.4,10.9,26.8,14.8
			c6.7,2.8,13.8,4.5,21.1,5.2c1.8,0.2,3.7,0.4,5.8,0.6c2.9,0.3,5.9,0.6,8.9,0.9c4.4,0.3,8.7-0.8,12.4-3.2c3.7-2.3,6.6-5.8,8.4-9.8
			c2.2-5.8,4-11.7,5.5-17.7c1.4-5.8,3.2-11.5,5.3-17.1c6.5-15.7,14.6-30.6,24.1-44.6c9.2-13.6,19.9-26.1,32-37.3l0.1-0.1
			c1-0.8,1.9-1.8,2.5-3c0.4-0.8,0.6-1.7,0.5-2.6c0-0.9-0.4-1.7-1-2.3v-0.1c-4.2-5.2-8.2-10.6-11.8-16.2c-0.7-1.1-1.5-2.3-2.2-3.4
			c-5.2-8.2-10.6-16.8-18.6-23.5c-3.8-3.3-8-6-12.5-8.3c-4.5-2.2-9.3-3.7-14.3-4.4l-3.5-0.5c-3.2-0.4-7.2-1-10.7-1.3
			c-4.9-0.5-11.3-1.1-17.6-2.4c-9.3-1.8-15.6-4-21.7-7.5c-2.2-1.2-4.6-1.9-7.1-1.9C182.1,41.1,181.3,41.1,180.5,41.2z"/>
		
			<linearGradient id="SVGID_16_" gradientUnits="userSpaceOnUse" x1="374.6827" y1="34.0301" x2="588.8857" y2="34.0301" gradientTransform="matrix(1 0 0 -1 -290.69 178.21)">
			<stop  offset="0" style="stop-color:#CA92C1"/>
			<stop  offset="1" style="stop-color:#72CDDF"/>
		</linearGradient>
		<path class="st14" d="M210.4,244.1c-3.4-0.1-6.8-0.4-9.9-0.7c-1.5-0.1-2.9-0.3-4.3-0.4c-6.9-0.6-13.6-2.1-20-4.7
			c-9-3.6-17.6-8.3-25.5-13.9c-19.1-13.3-36.3-31.5-49.6-52.8c-6.9-11-11.5-21.8-13.7-32.3c-3.4-16-8.6-40.2,8.4-56.2
			c5.8-5.5,12.5-9.5,19-13.4l3-1.8l2.9-1.8c5.8-3.6,11.8-7.3,18.3-10c6.9-2.7,14.1-4.8,21.4-6.3c3.5-0.8,6.8-1.7,9.9-2.6
			c4.1-1.1,7.9-2.2,12-2.9c3.1-0.6,6.3-0.1,9.1,1.3c5.8,2.9,11.8,4.8,20.7,6.3c5.6,1,11.4,1.6,16.7,2c3.7,0.3,7.7,0.9,11,1.4
			l2.4,0.3c9,1.2,17.8,5.4,25.6,12.2c8.3,7.2,13.7,16.9,18.5,25.5l0.8,1.5c3.5,6.2,7,11.7,10,16.5l0.1,0.1c0.5,0.7,0.8,1.6,0.8,2.5
			c0,0.9-0.2,1.8-0.5,2.7c-0.6,1.1-1.4,2.2-2.4,3l-0.1,0.1c-21,20.6-39.8,48.5-53,78.6c-2.1,5.1-3.9,10.3-5.4,15.7
			c-1.7,5.9-3.7,11.6-6.1,17.2c-3.6,7.6-11.1,12.5-19.4,12.8C210.9,244.1,210.7,244.1,210.4,244.1z M182.5,45
			c-4.1,0.8-7.9,1.8-12,2.9c-3.2,0.9-6.5,1.8-10,2.6c-7.3,1.4-14.4,3.5-21.3,6.3c-6.4,2.7-12.4,6.4-18.2,9.9l-2.9,1.8
			c-1,0.6-2,1.2-3,1.8c-6.5,3.9-13.1,7.9-18.9,13.3c-16.7,15.8-11.8,38.8-8.2,55.7c2.2,10.4,6.8,21.2,13.6,32.1
			c13.2,21.2,30.3,39.4,49.4,52.6c7.9,5.6,16.4,10.2,25.4,13.8c6.3,2.5,13,4.1,19.9,4.7v0.3v-0.3l4.3,0.4c3,0.3,6.5,0.6,9.9,0.7
			c8,0.4,16.3-4.8,19.8-12.4c2.4-5.6,4.4-11.3,6.1-17.2c1.5-5.3,3.3-10.6,5.4-15.7c13.2-30.2,32.1-58.2,53.1-78.8l0.1-0.1
			c0.9-0.8,1.7-1.8,2.3-2.9c0.4-0.8,0.5-1.6,0.5-2.4c0-0.8-0.3-1.6-0.8-2.2l-0.1-0.1c-3.1-4.9-6.6-10.4-10-16.6l-0.8-1.5
			c-5-8.9-10.1-18.1-18.4-25.3c-7.7-6.7-16.4-10.8-25.3-12l-2.4-0.3c-3.3-0.5-7.3-1-11-1.4c-5.4-0.5-11.1-1.1-16.8-2
			c-8.9-1.6-15-3.4-20.8-6.4c-2-1-4.1-1.5-6.3-1.5C184.1,44.8,183.3,44.9,182.5,45z"/>
		
			<linearGradient id="SVGID_17_" gradientUnits="userSpaceOnUse" x1="378.1311" y1="34.5825" x2="582.8325" y2="34.5825" gradientTransform="matrix(1 0 0 -1 -290.69 178.21)">
			<stop  offset="0" style="stop-color:#CA92C1"/>
			<stop  offset="1" style="stop-color:#72CDDF"/>
		</linearGradient>
		<path class="st15" d="M207.9,239.3c-3.9,0-7.9-0.3-11.4-0.5l-2.1-0.1l0,0c-6.4-0.4-12.8-1.8-18.8-4.2c-8.5-3.3-16.5-7.6-24-12.9
			c-9.4-6.5-18.1-13.9-25.9-22.3c-7.8-8.3-14.8-17.4-20.9-27c-6-9.3-10.5-19.4-13.1-30.1l-0.2-0.9c-1.9-8-4.2-18-3.9-27.7
			c0.1-4.9,1-9.7,2.7-14.3c1.9-4.9,4.9-9.2,8.8-12.8c5.7-5.2,12.3-9,18.7-12.6l3.4-2l3.9-2.3c5.5-3.4,11.1-6.4,17-9.1
			c6.8-2.8,13.7-5,20.9-6.6c3.2-0.8,6.2-1.7,9.2-2.6c4.1-1.2,8.1-2.4,12.3-3.2c2.9-0.6,5.9-0.3,8.6,0.9c5.6,2.4,11.3,3.9,19.9,5.1
			c5.1,0.8,10.2,1.2,15.9,1.7c3.9,0.3,8.3,1,11.5,1.4l1.2,0.2c9,1.4,17.4,5.5,24.1,11.6c8.7,7.7,13.7,18.2,17.8,26.8
			c1.7,3.6,3.3,6.9,5,10.1c1.2,2.4,2.3,4.7,3.4,6.9v0.1c0.4,0.7,0.6,1.5,0.6,2.3c0,0.9-0.2,1.7-0.5,2.5c-0.5,1.1-1.3,2-2.1,2.9
			l-0.1,0.1c-19,20.1-36.8,46.9-50,75.5c-2,4.4-3.8,9.3-5.5,14.1c-1.9,5.8-4.1,11.4-6.7,16.9c-1.9,3.6-4.6,6.6-8.1,8.7
			c-3.3,2.1-7.1,3.3-11.1,3.3L207.9,239.3z M184.3,48.3c-4.2,0.8-8.1,2-12.3,3.2c-3,0.9-6,1.8-9.2,2.6c-7.1,1.7-14.1,3.9-20.9,6.6
			c-5.9,2.7-11.5,5.7-17,9.1l-3.9,2.3l-3.4,2c-6.4,3.6-13,7.4-18.7,12.6c-3.9,3.5-6.9,7.9-8.8,12.7c-1.7,4.6-2.6,9.4-2.7,14.3
			c-0.3,9.7,2.1,19.7,3.9,27.6l0.2,0.9c2.7,10.7,7.1,20.9,13.1,30.1c6.1,9.6,13.1,18.7,20.9,27c7.8,8.3,16.5,15.8,25.9,22.2
			c7.5,5.2,15.5,9.5,24,12.9c6,2.4,12.3,3.8,18.8,4.2l2.1,0.1c3.5,0.2,7.5,0.5,11.4,0.5h0.2c7.7,0,15.5-4.9,19.1-12
			c2.6-5.5,4.9-11.1,6.7-16.9c1.7-4.8,3.4-9.7,5.5-14.1c13.2-28.6,31-55.4,50-75.5l0.1-0.1c0.9-0.8,1.6-1.8,2.1-2.9
			c0.3-0.8,0.5-1.6,0.5-2.5c0-0.8-0.2-1.6-0.6-2.3V113c-1.1-2.2-2.2-4.5-3.4-6.9c-1.6-3.2-3.3-6.6-5-10.1
			c-4.1-8.5-9.1-19.1-17.8-26.7c-6.7-6.1-15.1-10.2-24.1-11.6l-1.2-0.2c-3.2-0.5-7.6-1.1-11.5-1.4c-5.7-0.5-10.8-1-15.9-1.7
			c-8.5-1.3-14.3-2.8-19.9-5.1c-1.8-0.8-3.8-1.2-5.7-1.2C186.1,48,185.2,48.1,184.3,48.3L184.3,48.3z"/>
		
			<linearGradient id="SVGID_18_" gradientUnits="userSpaceOnUse" x1="381.2591" y1="35.0812" x2="577.0345" y2="35.0812" gradientTransform="matrix(1 0 0 -1 -290.69 178.21)">
			<stop  offset="0" style="stop-color:#CA92C1"/>
			<stop  offset="1" style="stop-color:#72CDDF"/>
		</linearGradient>
		<path class="st16" d="M192.4,234.6c-6-0.3-12-1.6-17.6-3.7c-8-3-15.6-7-22.6-11.8c-8.8-6-17-12.9-24.4-20.7
			c-7.4-7.7-14-16.2-19.8-25.2c-5.7-8.7-9.9-18.2-12.6-28.1c-0.1-0.5-0.3-1.1-0.4-1.6c-2-7.8-4.5-17.6-4.4-27.1
			c0-4.8,0.8-9.5,2.5-14c1.9-4.8,4.9-9,8.7-12.4c5.7-5,12.2-8.6,18.5-12c1.2-0.7,2.5-1.4,3.8-2.1c1.7-0.9,3.4-1.9,5-2.8
			c5.1-3,10.3-5.7,15.7-8.2c6.6-2.8,13.4-5.2,20.4-7c2.9-0.8,5.7-1.7,8.4-2.6c4.3-1.4,8.3-2.7,12.6-3.6c2.7-0.6,5.5-0.4,8.1,0.5
			c5.2,1.8,10.7,3,19,4c4.3,0.5,8.8,0.9,13.1,1.2l2,0.2c4.3,0.3,9.1,1.1,12,1.5c8.5,1.4,16.4,5.2,22.7,11.1
			c8.2,7.4,12.7,17.6,16.3,26.7l0.4,1c2.3,5.9,4.5,11.4,6.2,16.4v0.1c0.3,0.7,0.4,1.5,0.4,2.3c0,0.8-0.2,1.7-0.5,2.4
			c-0.5,1-1.2,2-1.9,2.8l-0.1,0.1c-16.9,19.5-33.6,45.2-47,72.3c-1.9,3.9-3.7,8.2-5.3,12.4c-2.1,5.7-4.6,11.2-7.5,16.6
			c-3.8,6.7-11.3,11.3-18.6,11.5c-1,0-2.1,0-3.2,0C198.8,234.9,195.4,234.8,192.4,234.6z M186.1,51.8c-4.3,0.9-8.3,2.2-12.6,3.6
			c-2.7,0.9-5.5,1.8-8.4,2.6c-6.9,1.9-13.7,4.2-20.4,7c-5.4,2.5-10.6,5.2-15.7,8.2c-1.6,0.9-3.3,1.9-5,2.8c-1.3,0.7-2.5,1.4-3.8,2.1
			c-6.3,3.4-12.8,6.9-18.5,12c-3.9,3.4-6.8,7.6-8.7,12.4c-1.7,4.5-2.5,9.2-2.5,14c-0.1,9.5,2.4,19.3,4.4,27.1
			c0.1,0.5,0.3,1.1,0.4,1.6c2.7,10,6.9,19.5,12.6,28.1c5.8,9,12.4,17.4,19.8,25.2c7.4,7.7,15.6,14.7,24.4,20.7
			c7,4.9,14.6,8.8,22.6,11.8c5.6,2.1,11.6,3.4,17.6,3.7l0,0c3.9,0.2,8.5,0.3,12.9,0.2c7.3-0.2,14.8-4.8,18.6-11.5
			c2.9-5.4,5.4-10.9,7.5-16.6c1.7-4.2,3.4-8.5,5.3-12.4c13.4-27.1,30-52.8,47-72.3l0.1-0.1c0.8-0.8,1.4-1.8,1.9-2.8
			c0.3-0.8,0.5-1.6,0.5-2.4c0-0.8-0.1-1.6-0.4-2.3v-0.1c-1.7-5-3.9-10.5-6.3-16.4l-0.4-1c-3.6-9-8.1-19.2-16.3-26.6
			c-6.3-5.8-14.2-9.7-22.7-11.1c-2.9-0.4-7.8-1.2-12-1.5l-1.9-0.1c-4.3-0.4-8.8-0.7-13.1-1.2c-8.2-1-13.7-2.2-19-4
			c-1.6-0.5-3.3-0.8-5-0.8C188.2,51.5,187.2,51.6,186.1,51.8z"/>
		
			<linearGradient id="SVGID_19_" gradientUnits="userSpaceOnUse" x1="384.3627" y1="35.4556" x2="571.2773" y2="35.4556" gradientTransform="matrix(1 0 0 -1 -290.69 178.21)">
			<stop  offset="0" style="stop-color:#CA92C1"/>
			<stop  offset="1" style="stop-color:#72CDDF"/>
		</linearGradient>
		<path class="st17" d="M190.5,230.6L190.5,230.6c-5.6-0.2-11.2-1.3-16.5-3.2c-7.5-2.7-14.6-6.4-21.1-10.9c-8.3-5.5-16-11.9-23-19.1
			c-6.9-7.1-13.1-14.9-18.5-23.3c-5.3-8-9.4-16.8-12.1-26.1c-0.2-0.7-0.4-1.4-0.6-2.1c-2.2-7.7-4.9-17.2-5-26.6
			c-0.1-4.7,0.7-9.4,2.3-13.8c1.8-4.7,4.8-8.9,8.7-12.2c5.6-4.9,12.1-8.2,18.4-11.4c1.4-0.7,2.8-1.4,4.1-2.1
			c2.1-1.1,4.2-2.3,6.3-3.4c4.6-2.5,9.3-5.1,14.1-7.2c6.5-2.9,13.1-5.3,19.9-7.4c2.6-0.8,5.1-1.7,7.5-2.5c4.4-1.5,8.5-3,13-4
			c2.5-0.6,5.2-0.6,7.7,0.1c5.9,1.4,12,2.3,18.1,2.7c3.1,0.3,6.3,0.5,9.4,0.7l4.8,0.3c3.1,0.2,6.9,0.7,11.4,1.4
			c8,1.3,15.4,5,21.4,10.5c3.8,3.6,6.9,7.8,9.2,12.4c2.3,4.5,4.1,9.3,5.6,14.1c2.3,7.2,3.8,12.9,4.9,17.8v0.1
			c0.4,1.6,0.3,3.2-0.3,4.7c-0.5,1-1,1.9-1.8,2.7l-0.1,0.1c-8.2,10.6-15.9,21.6-23.1,32.9c-7.2,11.5-14.3,23.6-20.9,36.2
			c-1.8,3.4-3.4,7-5,10.5c-2.5,5.7-5.3,11.2-8.5,16.6c-4,6.2-10.6,10.3-17.9,11c-2.5,0.2-5.2,0.3-8.1,0.3
			C193.4,230.6,192,230.6,190.5,230.6z M188,55.3c-4.4,1.1-8.6,2.5-13,4c-2.4,0.8-5,1.7-7.5,2.5c-6.8,2-13.4,4.5-19.9,7.4
			c-4.8,2.2-9.5,4.8-14.1,7.2c-2.1,1.1-4.2,2.3-6.3,3.4c-1.4,0.7-2.8,1.4-4.1,2.1c-6.3,3.2-12.8,6.5-18.4,11.4
			c-3.9,3.3-6.8,7.5-8.7,12.2c-1.6,4.4-2.4,9.1-2.3,13.8c0.1,9.4,2.8,19,5,26.6c0.2,0.7,0.4,1.4,0.6,2.1c2.7,9.2,6.8,18,12.1,26
			c5.4,8.4,11.6,16.2,18.6,23.3c6.9,7.2,14.6,13.6,22.9,19.1c6.6,4.5,13.7,8.1,21.1,10.9c5.3,1.9,10.9,3,16.5,3.2
			c4.7,0.1,8.7,0,12.3-0.2c7.3-0.7,13.9-4.8,17.9-11c3.2-5.3,6-10.9,8.5-16.6c1.6-3.5,3.3-7.2,5-10.5c6.6-12.6,13.6-24.7,20.9-36.2
			c7.1-11.4,14.8-22.4,23.1-32.9l0.1-0.1c0.7-0.8,1.3-1.7,1.7-2.7c0.3-0.7,0.5-1.5,0.6-2.3c0-0.8,0-1.5-0.2-2.3v-0.1
			c-1.1-4.9-2.6-10.6-4.9-17.8c-2.9-9-6.8-19.2-14.8-26.5c-5.9-5.5-13.3-9.2-21.3-10.5c-4.5-0.7-8.3-1.2-11.3-1.4l-4.8-0.3
			c-3.1-0.2-6.3-0.4-9.4-0.7c-6.1-0.4-12.1-1.4-18.1-2.8c-1.3-0.3-2.7-0.5-4.1-0.5C190.4,54.9,189.2,55,188,55.3z"/>
		
			<linearGradient id="SVGID_20_" gradientUnits="userSpaceOnUse" x1="387.4602" y1="35.7776" x2="565.5187" y2="35.7776" gradientTransform="matrix(1 0 0 -1 -290.69 178.21)">
			<stop  offset="0" style="stop-color:#CA92C1"/>
			<stop  offset="1" style="stop-color:#72CDDF"/>
		</linearGradient>
		<path class="st18" d="M188.6,226.5c-5.2-0.1-10.4-1-15.4-2.7c-7-2.4-13.6-5.7-19.7-9.9c-7.7-5.1-14.9-11-21.4-17.5
			c-6.5-6.6-12.3-13.8-17.4-21.5c-5-7.4-8.9-15.5-11.6-24c-0.2-0.7-0.5-1.5-0.7-2.3c-2.4-7.6-5.4-17-5.6-26.3
			c-0.2-4.7,0.5-9.3,2.1-13.7c1.8-4.7,4.8-8.8,8.7-12c5.6-4.7,12.1-7.8,18.3-10.8c1.4-0.7,2.9-1.4,4.4-2.1c2.6-1.3,5.3-2.7,7.9-4.1
			c4-2.1,8.1-4.2,12.2-6.2c6.3-2.9,12.8-5.5,19.4-7.7c2.2-0.8,4.4-1.6,6.5-2.4c4.6-1.7,8.9-3.3,13.5-4.5c2.4-0.6,4.8-0.7,7.2-0.3
			c5.5,0.9,11,1.2,17.2,1.6c1.8,0.1,3.7,0.2,5.5,0.3c2.6,0.1,5.3,0.3,7.9,0.4c4.1,0.3,8.4,1,10.6,1.3c7.5,1.3,14.5,4.8,20,10
			c3.6,3.5,6.5,7.7,8.6,12.3c2,4.6,3.6,9.3,4.7,14.2c1.5,6,2.5,12,3.2,18.2v0.1c0.1,0.8,0.1,1.5,0,2.3c-0.1,0.8-0.3,1.5-0.6,2.3
			c-0.4,0.9-0.9,1.8-1.6,2.6l-0.1,0.1c-12.5,17.7-26.2,39.9-40.9,66c-1.5,2.7-3,5.5-4.4,8.3c-2.9,5.8-6.1,11.5-9.8,16.9
			c-4.1,5.7-10.3,9.5-17.2,10.5c-3.7,0.4-7.5,0.6-11.2,0.6L188.6,226.5z M189.1,226.4c3.7,0,7.5-0.2,11.2-0.6
			c6.9-1,13.1-4.8,17.2-10.5c3.6-5.4,6.9-11,9.8-16.9c1.4-2.8,2.9-5.6,4.4-8.3c14.6-26,28.4-48.2,40.9-66l0.1-0.1
			c0.6-0.8,1.1-1.7,1.5-2.6c0.3-0.7,0.5-1.5,0.6-2.3c0.1-0.8,0.1-1.5,0-2.3v-0.1c-0.7-6.1-1.7-12.2-3.2-18.1
			c-1.1-4.9-2.7-9.6-4.7-14.2c-2-4.6-5-8.8-8.6-12.2c-5.5-5.3-12.5-8.7-20-10c-2.2-0.4-6.5-1-10.6-1.3c-2.6-0.2-5.3-0.3-7.9-0.4
			c-1.8-0.1-3.7-0.2-5.5-0.3c-6.2-0.4-11.7-0.7-17.2-1.6c-2.4-0.4-4.9-0.3-7.2,0.3c-4.6,1.2-8.9,2.8-13.5,4.5
			c-2.1,0.8-4.3,1.6-6.5,2.4c-7.5,2.6-13.6,5-19.4,7.7c-4.1,1.9-8.2,4.1-12.2,6.2c-2.6,1.4-5.3,2.8-7.9,4.1
			c-1.5,0.7-2.9,1.4-4.4,2.1c-6.2,3-12.7,6.1-18.3,10.8c-3.9,3.2-6.9,7.3-8.7,12c-1.6,4.4-2.3,9-2.1,13.6c0.2,9.3,3.2,18.7,5.6,26.3
			l0.7,2.3c2.7,8.5,6.6,16.6,11.6,24c5.1,7.7,10.9,14.9,17.4,21.5c6.5,6.6,13.7,12.5,21.4,17.5c6.1,4.1,12.7,7.4,19.7,9.9
			c4.9,1.7,10.1,2.6,15.3,2.7l0,0L189.1,226.4z"/>
		
			<linearGradient id="SVGID_21_" gradientUnits="userSpaceOnUse" x1="390.2595" y1="36.1915" x2="560.1043" y2="36.1915" gradientTransform="matrix(1 0 0 -1 -290.69 178.21)">
			<stop  offset="0" style="stop-color:#CA92C1"/>
			<stop  offset="1" style="stop-color:#72CDDF"/>
		</linearGradient>
		<path class="st19" d="M172.4,220.5c-6.5-2.1-12.7-5.1-18.4-8.9c-14.4-9.3-26.8-21.4-36.3-35.7c-4.6-6.8-8.4-14.3-11.1-22.1
			l-0.8-2.2c-5.2-15-13.1-37.7,4.4-51.9c5.6-4.6,12.1-7.5,18.3-10.3c1.5-0.7,3.1-1.4,4.6-2.1c3.4-1.6,6.8-3.3,10.1-5
			s6.5-3.3,9.8-4.9c5.9-2.8,12.1-5.4,18.9-8.1l5.2-2.1c4.7-2,9.5-3.7,14.3-5.1c2.2-0.6,4.6-0.9,6.9-0.7c3.8,0.2,7.8,0.3,11.9,0.4
			l4.4,0.1h1.1c3.8,0.1,7.7,0.2,11.5,0.4c3.4,0.2,6.7,0.6,10,1.2c7.1,1.2,13.6,4.6,18.8,9.5c6.1,6,9.9,14.4,11.9,26.5
			c1,6.2,1.5,12.4,1.5,18.6v0.1c0,0.8,0,1.6-0.2,2.3c-0.1,0.8-0.3,1.5-0.6,2.3c-0.4,0.9-0.8,1.8-1.4,2.6l0,0.1
			c-7.3,11.8-14.8,24.4-22.8,37.7c-4.9,8.3-10,16.8-15,25.1c-1.1,1.8-2.2,3.7-3.2,5.5c-3.6,6.1-7.3,12.4-11.6,17.8
			c-4.2,5.2-10.1,8.8-16.6,10.1c-3.7,0.6-7.4,1-11.1,1.1h-0.7C181.4,222.7,176.8,221.9,172.4,220.5z M191.8,62.6
			c-4.9,1.4-9.4,3.2-14.3,5.2c-1.7,0.7-3.5,1.4-5.3,2.1c-6.8,2.6-13,5.2-18.9,8c-3.3,1.6-6.6,3.3-9.8,4.9s-6.7,3.4-10.1,5
			c-1.5,0.7-3.1,1.4-4.6,2.1c-6.2,2.8-12.6,5.7-18.2,10.2c-17.2,13.9-9.4,36.4-4.2,51.3l0.8,2.2c2.7,7.8,6.4,15.1,11,21.9
			c9.5,14.2,21.8,26.3,36.1,35.6c5.7,3.7,11.8,6.7,18.2,8.8c4.6,1.5,9.3,2.2,14.1,2.2l0,0c3.7-0.1,7.4-0.4,11.1-1
			c6.4-1.3,12.2-4.8,16.3-9.9c4.4-5.4,8-11.6,11.6-17.7c1.1-1.8,2.2-3.7,3.2-5.5c5-8.3,10.1-16.8,15-25.1
			c8-13.3,15.5-25.9,22.8-37.7l0.1-0.1c0.5-0.8,1-1.6,1.3-2.5c0.3-0.7,0.5-1.4,0.6-2.1c0.1-0.7,0.1-1.5,0.1-2.3v-0.1
			c0-6.2-0.5-12.4-1.5-18.5c-1.9-12-5.7-20.3-11.7-26.2c-5.1-4.9-11.5-8.2-18.5-9.4c-3.3-0.6-6.6-1-9.9-1.2
			c-3.8-0.2-7.7-0.3-11.5-0.4h-1.1l-4.4-0.1c-4.1-0.1-8.1-0.1-11.9-0.4h-1.2C195.4,61.9,193.6,62.1,191.8,62.6L191.8,62.6z"/>
		
			<linearGradient id="SVGID_22_" gradientUnits="userSpaceOnUse" x1="393.5734" y1="37.0419" x2="554.8472" y2="37.0419" gradientTransform="matrix(1 0 0 -1 -290.69 178.21)">
			<stop  offset="0" style="stop-color:#CA92C1"/>
			<stop  offset="1" style="stop-color:#72CDDF"/>
		</linearGradient>
		<path class="st20" d="M171.7,216.7c-5.9-1.8-11.6-4.5-16.8-7.8c-6.6-4.1-12.8-9-18.4-14.4c-5.6-5.4-10.7-11.4-15.1-17.8
			c-4.3-6.2-7.8-12.9-10.5-20l-0.8-2c-2.7-7-6.4-16.6-7.1-25.9c-0.4-4.6,0.1-9.2,1.6-13.6c1.7-4.7,4.8-8.9,8.8-11.9
			c5.6-4.4,12.1-7.1,18.3-9.8c1.6-0.7,3.2-1.4,4.8-2c4.4-2,8.8-4.2,13.1-6.3c2.1-1.1,4.3-2.2,6.5-3.2c6.3-3.1,12.5-5.9,18.4-8.4
			L178,72c5.3-2.3,10.3-4.4,15.6-6.1c2.1-0.6,4.2-1,6.4-1.1l2.2-0.1c4.2-0.2,8.5-0.5,13.1-0.6c3.2-0.1,7.5-0.1,11.7,0.1
			c3.1,0.2,6.2,0.6,9.3,1.1c6.5,1.2,12.5,4.3,17.2,9c5.9,5.9,9.3,14.6,10.3,26.3c0.5,6.3,0.4,12.7-0.2,18.9v0.1
			c-0.1,0.7-0.2,1.5-0.3,2.3c-0.1,0.7-0.3,1.4-0.6,2.1c-0.3,0.8-0.7,1.7-1.2,2.4l-0.1,0.1c-12.3,23-23.7,42.5-34.8,59.5
			c-0.3,0.5-0.6,0.9-0.9,1.4c-4.5,6.9-9.1,14-14.6,19.9c-4.2,4.6-9.7,7.9-15.8,9.5c-3.4,0.8-7,1.3-10.5,1.5c-0.5,0-1,0-1.5,0
			C179.4,218.4,175.5,217.8,171.7,216.7z M195.3,216.8c6-1.6,11.5-4.9,15.7-9.5c5.5-5.9,10.1-13,14.6-19.9l0.9-1.4
			c11.1-17,22.5-36.5,34.8-59.6l0.1-0.1c0.4-0.8,0.8-1.6,1.1-2.4c0.3-0.7,0.5-1.4,0.6-2.1c0.2-0.9,0.3-1.6,0.3-2.3v-0.1
			c0.7-6.3,0.8-12.6,0.2-18.9c-1-11.7-4.4-20.3-10.3-26.2c-4.7-4.6-10.7-7.8-17.2-8.9c-3.1-0.6-6.2-1-9.3-1.1
			c-4.2-0.2-8.4-0.2-11.7-0.1c-4.6,0.1-8.9,0.4-13.1,0.6l-2.2,0.1c-2.2,0.1-4.3,0.5-6.4,1.1c-5.3,1.7-10.3,3.8-15.6,6.1l-3.5,1.5
			c-5.9,2.5-12.1,5.3-18.4,8.4c-2.2,1.1-4.4,2.2-6.5,3.2c-4.3,2.1-8.7,4.4-13.1,6.3c-1.6,0.7-3.2,1.4-4.8,2.1
			c-6.2,2.6-12.7,5.4-18.3,9.8c-4,3-7,7.2-8.8,11.9c-1.5,4.4-2,9-1.6,13.7c0.7,9.3,4.4,18.9,7.1,25.9l0.8,2
			c2.7,7,6.2,13.7,10.5,19.9c4.4,6.4,9.5,12.4,15.1,17.8c5.6,5.4,11.8,10.3,18.4,14.4c5.2,3.4,10.9,6,16.9,7.8
			c4.2,1.3,8.6,1.8,13,1.7C188.3,218.1,191.8,217.7,195.3,216.8z"/>
		
			<linearGradient id="SVGID_23_" gradientUnits="userSpaceOnUse" x1="396.3203" y1="38.2128" x2="550.9027" y2="38.2128" gradientTransform="matrix(1 0 0 -1 -290.69 178.21)">
			<stop  offset="0" style="stop-color:#CA92C1"/>
			<stop  offset="1" style="stop-color:#72CDDF"/>
		</linearGradient>
		<path class="st21" d="M170.9,213.3c-5.5-1.5-10.7-3.9-15.5-6.9c-12.2-7.4-22.7-17.2-30.9-28.8c-4-5.6-7.3-11.7-10-18l-0.6-1.4
			c-6-14.2-16.1-37.9,2.3-51.9c5.6-4.3,12.1-6.9,18.4-9.3c1.6-0.6,3.3-1.3,5-2c6-2.5,12.1-5.5,17.9-8.5l1.4-0.7
			c5.5-2.8,11.8-5.9,17.9-8.8l0.3-0.1c5.9-2.9,12-5.5,18.2-7.8c2-0.7,4-1.2,6-1.5c4.8-0.9,9.6-1.5,14.5-1.9
			c3.6-0.3,7.2-0.4,10.9-0.2c2.9,0.1,5.8,0.5,8.6,1.1c6.1,1.1,11.7,4.1,16,8.5c5.8,6,8.8,14.9,8.9,26.3c0,6.5-0.7,13-2,19.4v0.1
			c-0.2,0.8-0.3,1.5-0.5,2.4s-0.4,1.4-0.6,2.1s-0.6,1.7-1,2.4v0.1c-8.7,19.8-19.3,38.7-31.8,56.5c-4.5,6.3-9.9,13.5-16.3,19.4
			c-4.3,4.1-9.5,7.2-15.1,9.1c-3.2,1-6.6,1.6-10,1.9c-0.8,0.1-1.6,0.1-2.4,0.1C177.3,214.6,174.1,214.2,170.9,213.3z M215.8,66.2
			c-4.8,0.4-9.7,1-14.4,1.9c-2,0.4-4,0.9-5.9,1.5c-6.2,2.3-12.3,4.9-18.2,7.8l-0.3,0.1c-6.1,2.9-12.4,6-17.9,8.8l-1.4,0.7
			c-5.9,2.9-11.9,6-18,8.5c-1.6,0.7-3.3,1.3-5,2c-6.2,2.4-12.7,5-18.2,9.2c-18.1,13.7-8.1,37.2-2.1,51.2l0.6,1.4
			c2.7,6.3,6,12.3,10,17.9c8.2,11.6,18.6,21.4,30.8,28.7c4.8,3,9.9,5.3,15.4,6.8c3.9,1.1,7.9,1.5,11.9,1.2l0,0
			c3.3-0.3,6.6-0.9,9.8-1.9c5.6-1.8,10.7-4.9,14.9-8.9c6.3-5.9,11.7-13.1,16.2-19.3c12.4-17.7,23-36.6,31.7-56.4v-0.1
			c0.3-0.8,0.7-1.6,1-2.4s0.5-1.4,0.6-2c0.2-0.8,0.4-1.6,0.5-2.4v-0.1c1.3-6.3,2-12.8,2-19.3c-0.1-11.3-3.1-20.1-8.7-26
			c-4.3-4.3-9.7-7.2-15.7-8.3c-2.8-0.6-5.7-0.9-8.5-1c-1.1,0-2.1-0.1-3.3-0.1C221,65.9,218.6,66,215.8,66.2L215.8,66.2z"/>
		
			<linearGradient id="SVGID_24_" gradientUnits="userSpaceOnUse" x1="399.5623" y1="39.3803" x2="546.8732" y2="39.3803" gradientTransform="matrix(1 0 0 -1 -290.69 178.21)">
			<stop  offset="0" style="stop-color:#CA92C1"/>
			<stop  offset="1" style="stop-color:#72CDDF"/>
		</linearGradient>
		<path class="st22" d="M167.8,208.9c-4.1-1.3-7.9-3-11.6-5.2c-16.5-9.6-29.6-24-37.7-41.2l-0.2-0.5c-3.1-6.4-7.7-16.2-9-25.8
			c-0.8-4.7-0.5-9.6,0.9-14.2c1.6-4.9,4.8-9.2,9-12.2c5.6-4.2,12.1-6.5,18.4-8.8c1.7-0.6,3.4-1.2,5-1.9c9.3-3.6,18.4-8.4,27.2-13.1
			s18.1-9.6,27.4-13.2c4.6-1.8,9.4-3.2,14.3-4.2c4.3-0.9,8.7-1.4,13-1.4h1.1c4.4,0,8.7,0.8,12.8,2.2c3.9,1.4,7.4,3.6,10.2,6.6
			c5,5.4,7.5,13.1,7.4,22.8c0,8-1.8,17.2-5.2,27.5c-3.3,9.9-7.3,19.5-12.2,28.7c-5,9.5-10.8,18.5-17.3,26.9
			c-5.3,7-11.5,13.2-18.4,18.6c-7.5,5.7-15,8.9-22.1,9.7c-1.1,0.1-2.2,0.2-3.3,0.2C174.3,210.4,171,209.9,167.8,208.9z M211.6,68.7
			c-4.9,1-9.7,2.4-14.3,4.2c-9.3,3.6-18.5,8.5-27.4,13.2s-18,9.5-27.2,13.1c-1.7,0.6-3.4,1.3-5,1.9c-6.3,2.3-12.8,4.7-18.4,8.8
			c-4.2,3-7.4,7.3-9,12.2c-1.4,4.6-1.7,9.4-0.9,14.1c1.4,9.6,6,19.3,9,25.8l0.2,0.5c8.1,17.2,21.2,31.6,37.7,41.2
			c3.6,2.2,7.5,3.9,11.6,5.2c4.3,1.3,8.7,1.8,13.2,1.3c7.2-0.8,14.6-4,22.1-9.7c6.9-5.4,13.1-11.6,18.4-18.6
			c6.6-8.4,12.3-17.5,17.3-26.9c4.8-9.2,8.9-18.8,12.1-28.7c3.4-10.2,5.1-19.5,5.2-27.4c0-9.7-2.5-17.3-7.4-22.7
			c-2.8-3-6.3-5.2-10.1-6.6c-4.1-1.4-8.4-2.2-12.8-2.2h-1.1C220.2,67.3,215.9,67.8,211.6,68.7z"/>
		
			<linearGradient id="SVGID_25_" gradientUnits="userSpaceOnUse" x1="401.3968" y1="38.69" x2="542.1328" y2="38.69" gradientTransform="matrix(1 0 0 -1 -290.69 178.21)">
			<stop  offset="0" style="stop-color:#CA92C1"/>
			<stop  offset="1" style="stop-color:#72CDDF"/>
		</linearGradient>
		<path class="st23" d="M166.9,206.4c-3.9-1.2-7.6-2.9-11.1-5c-15.7-9.2-28.2-22.9-35.9-39.4l-0.2-0.5c-3.1-6.5-7.3-15.4-8.6-24.6
			c-0.7-4.5-0.4-9.1,0.9-13.5c1.6-4.7,4.6-8.8,8.6-11.6c5.4-4,11.6-6.3,17.6-8.5c1.6-0.6,3.2-1.2,4.8-1.8c8.8-3.4,17.5-8,25.9-12.5
			s17.3-9.1,26.2-12.6c4.6-1.8,9.4-3.2,14.2-4.1c4.6-0.9,9.4-1.3,14.1-1.2c4,0.1,7.9,0.9,11.6,2.3c3.5,1.3,6.7,3.4,9.2,6.2
			c4.8,5.2,7.2,12.5,7.1,21.8c0,7.6-1.7,16.4-4.9,26.2c-3.1,9.5-7,18.7-11.6,27.5c-4.7,9.1-10.3,17.7-16.6,25.8
			c-2.4,3.1-5,6.1-7.7,8.9c-4.4,4.6-9.3,8.6-14.7,12c-5,3.2-10.6,5.2-16.5,5.9l0,0c-1,0.1-2.1,0.2-3.1,0.2
			C173.2,207.9,170,207.4,166.9,206.4z M209.4,72.4c-4.9,1-9.6,2.3-14.2,4.1c-8.9,3.4-17.7,8.1-26.2,12.6s-17.1,9-25.9,12.5
			c-1.6,0.6-3.2,1.2-4.8,1.8c-6,2.2-12.2,4.5-17.6,8.4c-18.1,13.3-6.9,37-0.9,49.7l0.2,0.5c7.7,16.5,20.2,30.2,35.9,39.4
			c3.5,2.1,7.2,3.8,11,5c4.1,1.3,8.3,1.7,12.6,1.3l0,0c5.8-0.7,11.5-2.8,16.4-6c5.4-3.4,10.3-7.4,14.6-12c2.7-2.8,5.3-5.8,7.7-8.9
			c6.3-8.1,11.8-16.7,16.5-25.8c4.6-8.8,8.5-18,11.6-27.5c3.2-9.8,4.9-18.6,4.9-26.2c0-9.3-2.4-16.6-7.1-21.7
			c-2.6-2.7-5.7-4.8-9.2-6.1c-3.7-1.4-7.6-2.2-11.6-2.3c-0.7,0-1.5-0.1-2.2-0.1C217.2,71.2,213.2,71.6,209.4,72.4L209.4,72.4z"/>
		
			<linearGradient id="SVGID_26_" gradientUnits="userSpaceOnUse" x1="403.2245" y1="37.9926" x2="537.3426" y2="37.9926" gradientTransform="matrix(1 0 0 -1 -290.69 178.21)">
			<stop  offset="0" style="stop-color:#CA92C1"/>
			<stop  offset="1" style="stop-color:#72CDDF"/>
		</linearGradient>
		<path class="st24" d="M166,204c-3.7-1.2-7.2-2.8-10.5-4.8c-15-8.7-26.9-21.8-34.2-37.5l-0.2-0.4c-5.7-12.1-16.3-34.7,0.9-47.4
			c5.1-3.8,11-6,16.7-8.1c1.5-0.6,3.1-1.1,4.6-1.7c8.4-3.3,16.6-7.6,24.6-11.8s16.5-8.8,25.1-12c4.4-1.7,8.9-3.1,13.6-4
			c4.4-0.9,8.9-1.2,13.4-1c3.8,0.1,7.5,0.9,11.1,2.2c3.3,1.3,6.4,3.3,8.8,5.9c4.5,4.9,6.9,11.9,6.8,20.7c0,7.3-1.6,15.7-4.6,25
			c-3,9-6.7,17.8-11.1,26.2c-4.5,8.7-9.8,16.9-15.8,24.6c-2.3,3-4.8,5.8-7.4,8.5c-4.2,4.4-8.9,8.2-14,11.4c-4.8,3-10.2,4.9-15.8,5.6
			c-1,0.1-1.9,0.1-2.9,0.1C172,205.4,168.9,204.9,166,204z M206.5,76.2c-4.6,0.9-9.2,2.2-13.6,3.9c-8.5,3.3-16.9,7.7-25,12
			s-16.2,8.6-24.6,11.9c-1.5,0.6-3.1,1.2-4.6,1.7c-5.7,2.1-11.6,4.3-16.7,8.1c-17.2,12.7-6.6,35.2-0.9,47.4l0.2,0.5
			c7.3,15.7,19.2,28.8,34.2,37.5c3.3,2,6.8,3.6,10.5,4.7c3.9,1.2,8,1.6,12,1.3c5.6-0.7,11-2.6,15.7-5.6c5.1-3.2,9.8-7,14-11.4
			c2.6-2.7,5.1-5.5,7.4-8.5c6-7.7,11.3-15.9,15.8-24.5c4.4-8.4,8.1-17.2,11-26.2c3-9.3,4.6-17.7,4.6-25c0-8.8-2.3-15.8-6.8-20.7
			c-2.4-2.6-5.5-4.6-8.8-5.9c-3.5-1.3-7.2-2.1-11-2.2c-0.7,0-1.5,0-2.2,0C214,75.1,210.2,75.5,206.5,76.2z"/>
		
			<linearGradient id="SVGID_27_" gradientUnits="userSpaceOnUse" x1="404.7843" y1="37.3363" x2="532.8054" y2="37.3363" gradientTransform="matrix(1 0 0 -1 -290.69 178.21)">
			<stop  offset="0" style="stop-color:#CA92C1"/>
			<stop  offset="1" style="stop-color:#72CDDF"/>
		</linearGradient>
		<path class="st25" d="M154.9,197.2c-14.3-8.3-25.6-20.8-32.6-35.8l-0.2-0.4c-5.4-11.6-15.5-33.2,1-45.4c4.9-3.6,10.5-5.7,16-7.7
			c1.4-0.5,2.9-1.1,4.3-1.6c7.9-3.3,15.7-7.1,23.2-11.2c7.8-4.1,15.8-8.3,23.9-11.5c8.9-3.4,18.1-5.1,25.8-4.8
			c8.2,0.4,14.7,3,19.1,7.8c10.1,10.9,6.8,29.8,2.3,43.8c-5.6,17.5-14.3,33.9-25.6,48.5c-2.2,2.8-4.6,5.6-7.1,8.1
			c-6.6,6.7-16.9,15-28.6,16.1c-0.9,0.1-1.8,0.1-2.6,0.1C166,203.1,159.4,199.8,154.9,197.2z M204.7,186.4c2.5-2.6,4.9-5.3,7.1-8.1
			c11.2-14.5,19.8-30.8,25.5-48.3c4.5-13.8,7.8-32.5-2.1-43.2c-4.3-4.6-10.6-7.2-18.7-7.6c-7.6-0.4-16.7,1.3-25.6,4.7
			c-8.1,3.1-16.1,7.4-23.9,11.5c-7.5,4.2-15.3,7.9-23.3,11.2c-1.4,0.6-2.9,1.1-4.3,1.6c-5.4,2-11,4.1-15.8,7.7
			c-16.2,12-6.2,33.3-0.9,44.7l0.2,0.4c6.9,14.9,18.2,27.3,32.3,35.6c4.9,2.9,12.4,6.5,21.2,5.7C188,201.3,198.2,193.1,204.7,186.4
			L204.7,186.4z"/>
		
			<linearGradient id="SVGID_28_" gradientUnits="userSpaceOnUse" x1="406.8748" y1="36.6554" x2="527.8125" y2="36.6554" gradientTransform="matrix(1 0 0 -1 -290.69 178.21)">
			<stop  offset="0" style="stop-color:#CA92C1"/>
			<stop  offset="1" style="stop-color:#72CDDF"/>
		</linearGradient>
		<path class="st26" d="M164.2,199c-3.3-1.1-6.5-2.5-9.5-4.3c-13.5-7.9-24.2-19.7-30.8-33.9l-0.2-0.4c-5.1-10.9-14.5-31.2,1-42.7
			c4.6-3.4,9.9-5.4,15.1-7.3c1.4-0.5,2.7-1,4.1-1.6c7.5-3.1,14.8-6.7,21.9-10.6c7.4-4.1,14.9-7.7,22.7-10.9
			c8.4-3.2,17.1-4.8,24.4-4.5c3.4,0.1,6.8,0.8,10,2c3,1.1,5.8,3,8,5.3c4.1,4.4,6.2,10.7,6.3,18.7c0,6.6-1.4,14.1-4.1,22.6
			c-2.6,8.2-5.9,16.1-9.9,23.7c-4.1,7.8-8.9,15.3-14.3,22.2c-2.1,2.7-4.4,5.3-6.8,7.7c-6.2,6.3-16,14-27.1,15.1
			c-0.8,0.1-1.6,0.1-2.4,0.1C169.7,200.3,166.9,199.9,164.2,199z M188.5,87.4c-7.7,3-15.3,7-22.7,10.9c-7.1,3.9-14.4,7.5-21.9,10.6
			c-1.4,0.5-2.8,1.1-4.1,1.6c-5.1,1.9-10.5,3.9-15.1,7.3c-15.4,11.4-6,31.7-0.9,42.7l0.2,0.4c6.5,14.2,17.3,26,30.7,33.8
			c7.4,4.3,13.8,6,20.2,5.5c11.1-1,20.9-8.8,27.1-15.1c2.4-2.4,4.6-5,6.8-7.7c5.4-7,10.2-14.4,14.3-22.2c4-7.6,7.3-15.6,9.9-23.7
			c2.7-8.4,4.1-16,4.1-22.5c0-7.9-2.1-14.2-6.2-18.7c-2.2-2.4-4.9-4.2-7.9-5.3c-3.2-1.2-6.6-1.9-10-2c-0.7,0-1.4,0-2.1,0
			C203.2,83,195.6,84.6,188.5,87.4z"/>
		
			<linearGradient id="SVGID_29_" gradientUnits="userSpaceOnUse" x1="408.5128" y1="35.9966" x2="523.2903" y2="35.9966" gradientTransform="matrix(1 0 0 -1 -290.69 178.21)">
			<stop  offset="0" style="stop-color:#CA92C1"/>
			<stop  offset="1" style="stop-color:#72CDDF"/>
		</linearGradient>
		<path class="st27" d="M154.2,192.7c-12.8-7.5-22.9-18.7-29.1-32.1l-0.2-0.4c-4.8-10.4-13.7-29.7,1-40.7c4.4-3.3,9.4-5.2,14.3-7
			c1.3-0.5,2.6-1,3.8-1.5c7-3,13.9-6.3,20.6-10c7-3.9,14.2-7.3,21.6-10.4c8-3.1,16.2-4.6,23.2-4.2c7.4,0.4,13.2,2.7,17.1,7
			c9.1,9.8,6.2,26.8,2.2,39.3c-5,15.8-12.7,30.6-22.9,43.7c-2,2.6-4.2,5-6.5,7.3c-5.9,6-15.2,13.2-25.9,14.2
			c-0.8,0.1-1.5,0.1-2.2,0.1C165.8,198,160.4,196.3,154.2,192.7z M186.4,91.2c-7.4,3-14.6,6.5-21.5,10.3c-6.7,3.7-13.6,7-20.6,10
			c-1.3,0.5-2.6,1-3.9,1.5c-4.8,1.8-9.8,3.7-14.2,6.9c-14.4,10.7-5.6,29.8-0.9,40l0.2,0.4c6.1,13.3,16.2,24.5,28.9,31.9
			c6.9,4,12.9,5.7,19,5.1c10.5-0.9,19.8-8.1,25.6-14c2.3-2.3,4.4-4.7,6.4-7.3c10.1-13,17.9-27.7,22.8-43.5c4-12.4,6.8-29.1-2.1-38.7
			c-3.9-4.2-9.5-6.5-16.8-6.8c-0.7,0-1.3-0.1-2-0.1C200.2,87.2,193.1,88.6,186.4,91.2L186.4,91.2z"/>
		
			<linearGradient id="SVGID_30_" gradientUnits="userSpaceOnUse" x1="410.6133" y1="35.2853" x2="518.2554" y2="35.2853" gradientTransform="matrix(1 0 0 -1 -290.69 178.21)">
			<stop  offset="0" style="stop-color:#CA92C1"/>
			<stop  offset="1" style="stop-color:#72CDDF"/>
		</linearGradient>
		<path class="st28" d="M153.9,190.3c-12-7-21.5-17.5-27.2-30.1l-0.2-0.4c-4.5-9.7-12.7-27.8,1-38c4.1-3.1,8.8-4.9,13.4-6.6
			c1.2-0.4,2.4-0.9,3.6-1.4c6.6-2.8,13-5.9,19.3-9.4c6.6-3.7,13.4-6.9,20.4-9.8c6.3-2.5,13-3.9,19.8-4c0.7,0,1.4,0,2,0
			c3,0.1,6.1,0.7,8.9,1.8c2.7,1,5.1,2.6,7.1,4.8c8.5,9.1,5.9,25,2.2,36.8c-2.3,7.3-5.3,14.4-8.8,21.3c-3.6,7-7.9,13.7-12.8,19.9
			c-1.9,2.4-3.9,4.7-6.1,6.9c-10.1,10-18.9,12.7-24.5,13.2c-0.7,0-1.3,0.1-2,0.1C164.9,195.3,159.7,193.6,153.9,190.3z M184.1,94.6
			c-7,2.9-13.8,6.1-20.3,9.8c-6.3,3.5-12.7,6.6-19.3,9.4c-1.2,0.5-2.4,0.9-3.6,1.4c-4.6,1.7-9.3,3.5-13.4,6.6
			c-3.1,2.2-5.3,5.3-6.6,8.9c-1,3.3-1.3,6.8-0.7,10.3c0.9,7,4,13.8,6.3,18.8l0.2,0.4c5.8,12.6,15.3,23.1,27.2,30.1
			c6.5,3.8,12.2,5.4,18,4.9c5.6-0.5,14.4-3.1,24.4-13.1c2.2-2.2,4.2-4.5,6.1-6.9c4.9-6.2,9.1-12.9,12.8-19.9
			c3.5-6.8,6.5-13.9,8.8-21.3c3.7-11.7,6.3-27.6-2.1-36.7c-2-2.1-4.4-3.7-7.1-4.7c-2.8-1.1-5.8-1.7-8.9-1.8c-0.7,0-1.3,0-2,0
			C197.1,90.8,190.4,92.1,184.1,94.6L184.1,94.6z"/>
		
			<linearGradient id="SVGID_31_" gradientUnits="userSpaceOnUse" x1="412.449" y1="34.605" x2="513.4594" y2="34.605" gradientTransform="matrix(1 0 0 -1 -290.69 178.21)">
			<stop  offset="0" style="stop-color:#CA92C1"/>
			<stop  offset="1" style="stop-color:#72CDDF"/>
		</linearGradient>
		<path class="st29" d="M153.6,188c-11.2-6.6-20.2-16.5-25.5-28.3l-0.1-0.3c-4.2-9.1-11.9-26.1,1-35.8c3.9-2.9,8.3-4.6,12.6-6.2
			c1.1-0.4,2.2-0.9,3.4-1.3c6.2-2.6,12.2-5.5,18-8.8c6.2-3.5,12.5-6.5,19.1-9.2c6.5-2.6,13.5-3.8,20.5-3.6c2.9,0.1,5.7,0.7,8.4,1.7
			c2.5,1,4.8,2.5,6.7,4.5c8,8.6,5.6,23.5,2.1,34.5c-2.2,6.9-4.9,13.6-8.2,20c-3.4,6.6-7.4,12.9-12,18.7c-1.8,2.3-3.7,4.4-5.8,6.5
			c-3.3,3.3-6.9,6.1-11,8.4c-3.7,2.1-7.9,3.5-12.2,3.9l0,0c-0.6,0-1.2,0.1-1.8,0.1C163.8,192.7,159,191.2,153.6,188z M193.6,180.4
			c2.1-2,4-4.2,5.8-6.5c4.6-5.8,8.6-12.1,12-18.7c3.3-6.4,6.1-13.1,8.2-20c3.4-11,5.9-25.9-2.1-34.5c-1.9-2-4.1-3.5-6.7-4.4
			c-2.7-1-5.5-1.6-8.4-1.7c-7-0.2-13.9,1-20.4,3.6c-6.6,2.7-13,5.8-19.2,9.2c-5.8,3.2-11.8,6.2-18,8.8c-1.1,0.4-2.3,0.9-3.4,1.3
			c-4.3,1.6-8.7,3.3-12.6,6.2c-12.8,9.6-5.1,26.6-0.9,35.7l0.1,0.3c5.4,11.8,14.3,21.7,25.5,28.3c6.1,3.6,11.5,5.1,16.8,4.6
			S184.1,189.7,193.6,180.4L193.6,180.4z"/>
		
			<linearGradient id="SVGID_32_" gradientUnits="userSpaceOnUse" x1="414.2879" y1="33.9497" x2="508.7363" y2="33.9497" gradientTransform="matrix(1 0 0 -1 -290.69 178.21)">
			<stop  offset="0" style="stop-color:#CA92C1"/>
			<stop  offset="1" style="stop-color:#72CDDF"/>
		</linearGradient>
		<path class="st30" d="M153.2,185.8c-10.5-6.1-18.8-15.4-23.8-26.5l-0.1-0.2c-3.9-8.5-11-24.4,1-33.4c3.6-2.7,7.7-4.3,11.7-5.8
			c1-0.4,2.1-0.8,3.1-1.2c5.7-2.4,11.2-5.1,16.6-8.1c5.8-3.3,11.8-6.2,18-8.7c5.5-2.2,11.3-3.3,17.2-3.4c0.7,0,1.3,0,2,0.1
			c2.7,0.1,5.3,0.7,7.8,1.6c2.4,0.9,4.5,2.3,6.2,4.2c7.5,8,5.3,22,2.1,32.3c-2,6.5-4.5,12.8-7.6,18.8c-3.2,6.2-7,12.1-11.3,17.5
			c-1.7,2.1-3.5,4.2-5.5,6.1c-3.1,3-6.5,5.7-10.3,7.7c-3.5,2-7.5,3.1-11.5,3.5c-0.5,0-1,0-1.6,0
			C162.8,190.2,158.3,188.8,153.2,185.8z M190.7,178.9c1.9-1.9,3.8-3.9,5.5-6.1c4.3-5.5,8.1-11.3,11.3-17.5c3.1-6,5.6-12.3,7.6-18.8
			c3.2-10.3,5.4-24.3-2.1-32.2c-1.7-1.8-3.9-3.3-6.2-4.2c-2.5-0.9-5.1-1.5-7.8-1.6c-6.5-0.2-13,0.9-19.1,3.4
			c-6.2,2.5-12.2,5.4-18,8.7c-5.4,3-11,5.7-16.6,8.1c-1,0.4-2.1,0.8-3.1,1.2c-4,1.5-8.1,3.1-11.7,5.8c-12,9-4.8,24.8-1,33.4l0.1,0.2
			c5,11.1,13.3,20.3,23.8,26.4c5.7,3.4,10.7,4.7,15.7,4.4S181.8,187.5,190.7,178.9L190.7,178.9z"/>
		
			<linearGradient id="SVGID_33_" gradientUnits="userSpaceOnUse" x1="416.1308" y1="33.2421" x2="503.9651" y2="33.2421" gradientTransform="matrix(1 0 0 -1 -290.69 178.21)">
			<stop  offset="0" style="stop-color:#CA92C1"/>
			<stop  offset="1" style="stop-color:#72CDDF"/>
		</linearGradient>
		<path class="st31" d="M152.8,183.5c-9.7-5.7-17.5-14.3-22.1-24.6l-0.1-0.2c-3.5-7.9-10.2-22.7,1-31.1c3.3-2.5,7.2-4,10.9-5.4
			c1-0.4,1.9-0.8,2.9-1.1c5.2-2.2,10.3-4.7,15.3-7.5c5.4-3,11.1-5.8,16.8-8.1c5.7-2.3,11.7-3.3,17.8-3.1c2.5,0.1,5,0.6,7.3,1.5
			c2.2,0.9,4.2,2.2,5.8,3.9c7,7.5,5,20.5,2.1,30.1c-3.7,12.3-9.6,23.8-17.6,33.9c-1.6,2-3.3,3.9-5.1,5.7c-2.9,2.8-6.2,5.2-9.7,7.1
			c-3.3,1.8-7,2.9-10.7,3.2c-0.5,0-0.9,0-1.3,0C161.8,187.7,157.6,186.4,152.8,183.5z M178.1,184.4c3.6-1.9,6.8-4.3,9.7-7.1
			c1.8-1.8,3.6-3.7,5.1-5.7c7.9-10.1,13.9-21.6,17.6-33.9c2.9-9.6,4.9-22.6-2.1-30c-1.6-1.7-3.6-3-5.8-3.9c-2.3-0.9-4.8-1.4-7.3-1.5
			c-0.6,0-1.3-0.1-1.9-0.1c-5.4,0.1-10.8,1.2-15.9,3.1c-5.8,2.4-11.4,5.1-16.8,8.1c-5,2.8-10.1,5.3-15.3,7.5c-1,0.4-1.9,0.8-2.9,1.1
			c-3.7,1.4-7.5,2.9-10.9,5.4c-2.5,1.8-4.4,4.3-5.3,7.2c-0.8,2.7-1.1,5.6-0.6,8.4c0.7,5.7,3.2,11.3,5,15.4l0.1,0.2
			c4.6,10.3,12.3,18.9,22,24.6c5.2,3.1,9.9,4.4,14.6,4.1C171.1,187.3,174.8,186.2,178.1,184.4L178.1,184.4z"/>
		
			<linearGradient id="SVGID_34_" gradientUnits="userSpaceOnUse" x1="417.9493" y1="32.5493" x2="499.2025" y2="32.5493" gradientTransform="matrix(1 0 0 -1 -290.69 178.21)">
			<stop  offset="0" style="stop-color:#CA92C1"/>
			<stop  offset="1" style="stop-color:#72CDDF"/>
		</linearGradient>
		<path class="st32" d="M158.8,184.2c-2.2-0.7-4.3-1.7-6.3-2.9c-9-5.3-16.1-13.2-20.3-22.8l-0.1-0.2c-1.7-3.8-4-8.9-4.6-14.2
			c-0.4-2.6-0.2-5.3,0.6-7.8c0.9-2.7,2.7-5.1,5-6.7c3.1-2.2,6.5-3.9,10.1-5.1c0.9-0.3,1.8-0.7,2.6-1.1c4.7-1.9,9.5-4.5,14-6.9
			c5.1-2.8,10.3-5.4,15.6-7.6c5.2-2.1,10.9-3,16.5-2.8c5.2,0.3,9.3,2,12.1,5s4.3,7.2,4.5,12.6c0,5.2-0.8,10.3-2.4,15.2
			c-3.3,11.4-8.9,22.1-16.3,31.5c-1.5,1.9-3.1,3.6-4.8,5.3c-2.7,2.6-5.8,4.8-9.1,6.6c-3.1,1.6-6.5,2.6-10,2.8c-0.4,0-0.7,0-1.1,0
			C162.8,185.1,160.7,184.8,158.8,184.2z M175.4,109.1c-5.4,2.2-10.6,4.7-15.6,7.6c-4.5,2.5-9.2,4.8-14,6.9l-2.6,1.1
			c-3.6,1.2-7,2.9-10,5.1c-2.3,1.7-4,4-4.9,6.7c-0.8,2.5-1,5.2-0.6,7.8c0.6,5.3,2.9,10.5,4.6,14.2l0.1,0.2
			c4.2,9.5,11.3,17.5,20.3,22.7c4.8,2.9,9.1,4.1,13.5,3.8l0,0c3.5-0.2,6.9-1.2,10-2.8c3.3-1.7,6.4-3.9,9.1-6.5
			c1.7-1.6,3.3-3.4,4.8-5.2c7.4-9.4,12.9-20,16.3-31.5c1.6-4.9,2.4-10,2.4-15.2c-0.1-5.3-1.6-9.6-4.4-12.6s-6.9-4.7-12.1-5
			c-0.6,0-1.2-0.1-1.9-0.1C185,106.3,180.1,107.3,175.4,109.1z"/>
		
			<linearGradient id="SVGID_35_" gradientUnits="userSpaceOnUse" x1="419.7932" y1="31.8373" x2="494.4131" y2="31.8373" gradientTransform="matrix(1 0 0 -1 -290.69 178.21)">
			<stop  offset="0" style="stop-color:#CA92C1"/>
			<stop  offset="1" style="stop-color:#72CDDF"/>
		</linearGradient>
		<path class="st33" d="M152.1,179.1c-8.3-4.9-14.8-12.2-18.6-21l-0.1-0.2c-1.5-3.5-3.6-8.2-4.1-13.1c-0.3-2.4-0.1-4.8,0.6-7.1
			c0.8-2.5,2.4-4.6,4.5-6.2c2.8-2,6-3.6,9.2-4.7l2.4-1c4.3-1.9,8.6-4,12.7-6.3c4.7-2.6,9.5-5,14.5-7c4.8-1.9,10-2.7,15.2-2.4
			c4.8,0.3,8.6,1.9,11.2,4.7s4,6.7,4.2,11.6c0,4.7-0.7,9.5-2.1,14c-3,10.6-8.1,20.5-14.9,29.1c-1.4,1.7-2.9,3.3-4.5,4.9
			c-2.5,2.4-5.4,4.4-8.5,5.9c-2.9,1.4-6.1,2.3-9.3,2.5h-0.8C159.5,182.6,155.5,181.3,152.1,179.1z M173.7,180.1
			c3.1-1.5,6-3.5,8.5-5.9c1.6-1.5,3.1-3.1,4.5-4.9c6.8-8.6,11.9-18.5,14.9-29c1.4-4.5,2.1-9.3,2.1-14c-0.1-4.9-1.5-8.8-4.1-11.6
			s-6.4-4.3-11.1-4.6c-5.2-0.2-10.4,0.6-15.2,2.5c-5,2-9.8,4.4-14.5,7c-4.1,2.2-8.4,4.5-12.7,6.3l-2.4,1c-3.3,1.1-6.4,2.7-9.2,4.7
			c-2.1,1.5-3.7,3.7-4.5,6.2c-0.7,2.3-0.9,4.7-0.6,7.1c0.6,4.9,2.6,9.6,4.1,13.1l0.1,0.2c3.8,8.8,10.3,16.1,18.6,20.9
			c4.3,2.6,8.4,3.7,12.3,3.5C167.6,182.4,170.8,181.6,173.7,180.1z"/>
		
			<linearGradient id="SVGID_36_" gradientUnits="userSpaceOnUse" x1="421.6367" y1="31.1857" x2="489.6658" y2="31.1857" gradientTransform="matrix(1 0 0 -1 -290.69 178.21)">
			<stop  offset="0" style="stop-color:#CA92C1"/>
			<stop  offset="1" style="stop-color:#72CDDF"/>
		</linearGradient>
		<path class="st34" d="M151.7,176.8c-7.5-4.4-13.4-11.1-16.9-19.1l-0.1-0.1c-1.4-3.2-3.2-7.5-3.7-11.9c-0.3-2.2-0.1-4.4,0.6-6.5
			c0.8-2.3,2.2-4.2,4.1-5.6c2.6-1.8,5.5-3.3,8.5-4.4c0.7-0.3,1.4-0.6,2.1-0.9c3.8-1.6,7.6-3.6,11.3-5.6c4.3-2.4,8.8-4.6,13.4-6.5
			c4.4-1.7,9.2-2.5,13.9-2.3c4.4,0.3,7.8,1.8,10.2,4.3s3.7,6.1,3.9,10.6c0.1,4.3-0.6,8.6-1.8,12.8c-2.7,9.7-7.3,18.8-13.6,26.7
			c-1.3,1.6-2.7,3.1-4.2,4.4c-2.3,2.2-5,4-7.8,5.3c-2.7,1.3-5.6,2-8.6,2.1h-0.6C158.5,180,154.8,178.9,151.7,176.8z M171,116.3
			c-4.6,1.9-9.1,4-13.4,6.5c-3.7,2-7.5,4-11.3,5.6l-2.1,0.9c-3,1.1-5.9,2.5-8.5,4.4c-1.9,1.4-3.3,3.4-4.1,5.6
			c-0.7,2.1-0.9,4.3-0.6,6.5c0.5,4.4,2.3,8.8,3.7,11.9v0.1c3.5,8,9.3,14.6,16.8,19c3.3,2.2,7.2,3.3,11.2,3.3c3-0.1,5.9-0.9,8.5-2.1
			c2.9-1.3,5.5-3.1,7.8-5.3c1.5-1.4,2.9-2.9,4.2-4.4c6.3-7.9,10.9-16.9,13.6-26.6c1.3-4.1,1.9-8.4,1.9-12.7c-0.2-4.5-1.5-8-3.8-10.5
			s-5.8-4-10.2-4.3c-0.6,0-1.2-0.1-1.8-0.1C179,114,174.9,114.8,171,116.3z"/>
		
			<linearGradient id="SVGID_37_" gradientUnits="userSpaceOnUse" x1="423.4989" y1="30.4974" x2="484.9008" y2="30.4974" gradientTransform="matrix(1 0 0 -1 -290.69 178.21)">
			<stop  offset="0" style="stop-color:#CA92C1"/>
			<stop  offset="1" style="stop-color:#72CDDF"/>
		</linearGradient>
		<path class="st35" d="M151.3,174.6c-6.7-4-12-10-15.1-17.2v-0.1c-1.6-3.4-2.7-7-3.3-10.8c-0.2-2-0.1-4,0.5-5.9
			c0.7-2,2-3.8,3.7-5.1c2.4-1.7,4.9-3,7.7-4l1.8-0.8c3.4-1.4,6.7-3.2,9.9-5c3.9-2.3,8-4.2,12.2-5.9c4-1.6,8.3-2.2,12.6-2
			c4,0.3,7.1,1.6,9.2,3.9s3.4,5.5,3.6,9.5c0.1,3.9-0.4,7.8-1.5,11.5c-2.4,8.9-6.6,17.1-12.3,24.3c-1.2,1.4-2.5,2.8-3.9,4
			c-2.1,1.9-4.6,3.5-7.2,4.7c-2.5,1.1-5.2,1.7-7.9,1.8H161C157.6,177.5,154.2,176.5,151.3,174.6z M169.2,175.8
			c2.6-1.2,5.1-2.7,7.2-4.7c1.4-1.2,2.7-2.6,3.9-4c5.7-7.1,9.9-15.4,12.3-24.2c1.1-3.7,1.6-7.6,1.5-11.5c-0.2-4-1.4-7.2-3.5-9.5
			s-5.3-3.6-9.2-3.9c-4.3-0.2-8.6,0.4-12.6,2c-4.2,1.7-8.3,3.7-12.2,5.9c-3.2,1.8-6.6,3.6-9.9,5l-1.8,0.8c-2.7,1-5.3,2.3-7.7,4
			c-1.7,1.3-3,3.1-3.7,5.1c-0.6,1.9-0.8,3.9-0.5,5.9c0.4,4,2,7.9,3.2,10.8v0.1c3.1,7.2,8.4,13.2,15.1,17.2c2.9,1.9,6.3,2.9,9.7,3
			h0.4C164.1,177.5,166.8,176.9,169.2,175.8z"/>
		
			<linearGradient id="SVGID_38_" gradientUnits="userSpaceOnUse" x1="425.3317" y1="29.801" x2="480.1378" y2="29.801" gradientTransform="matrix(1 0 0 -1 -290.69 178.21)">
			<stop  offset="0" style="stop-color:#CA92C1"/>
			<stop  offset="1" style="stop-color:#72CDDF"/>
		</linearGradient>
		<path class="st36" d="M150.9,172.4c-6-3.5-10.7-8.9-13.4-15.4l0,0c-1.4-3.1-2.3-6.3-2.8-9.6c-0.2-1.8,0-3.6,0.5-5.2
			c0.6-1.8,1.8-3.4,3.3-4.6c2.1-1.5,4.4-2.7,6.9-3.6l1.6-0.7c2.9-1.3,5.8-2.8,8.6-4.4c3.6-2.1,7.2-3.9,11.1-5.4
			c3.6-1.4,7.5-2,11.3-1.8c3.1,0.1,6,1.4,8.3,3.5c2.1,2.4,3.2,5.4,3.3,8.5c0.1,3.5-0.3,7-1.3,10.3c-2,8-5.8,15.4-11,21.8
			c-1.1,1.3-2.3,2.5-3.5,3.6c-3.8,3.4-8.6,5.4-13.7,5.5h-0.1C156.6,175.1,153.6,174.1,150.9,172.4z M159.9,175
			c5.1-0.1,9.9-2.1,13.7-5.5c1.3-1.1,2.5-2.3,3.5-3.6c5.2-6.4,8.9-13.8,10.9-21.8c1-3.3,1.4-6.8,1.3-10.3c0-3.1-1.2-6.1-3.2-8.5
			c-2.2-2.2-5.1-3.4-8.2-3.5c-3.8-0.2-7.7,0.3-11.3,1.7c-3.8,1.5-7.5,3.3-11,5.4c-2.8,1.5-5.7,3.1-8.6,4.4l-1.6,0.7
			c-2.4,0.9-4.7,2.1-6.8,3.6c-1.5,1.2-2.7,2.7-3.3,4.5c-0.5,1.7-0.7,3.5-0.5,5.2c0.5,3.3,1.4,6.5,2.8,9.6l0,0
			c2.7,6.4,7.3,11.8,13.3,15.4c2.6,1.7,5.7,2.7,8.8,2.7H159.9z"/>
		
			<linearGradient id="SVGID_39_" gradientUnits="userSpaceOnUse" x1="427.1733" y1="29.0983" x2="475.4242" y2="29.0983" gradientTransform="matrix(1 0 0 -1 -290.69 178.21)">
			<stop  offset="0" style="stop-color:#CA92C1"/>
			<stop  offset="1" style="stop-color:#72CDDF"/>
		</linearGradient>
		<path class="st37" d="M158.4,172.6L158.4,172.6c-2.8-0.1-5.5-0.9-7.8-2.5c-5.3-3.1-9.3-7.9-11.6-13.5c-1.2-2.7-2-5.5-2.4-8.5
			c-0.2-1.6,0-3.1,0.5-4.6c0.6-1.6,1.6-3,2.9-4c1.8-1.4,3.9-2.4,6-3.3l1.3-0.6c2.4-1.1,4.9-2.4,7.2-3.7c3.2-1.9,6.5-3.5,9.9-4.8
			c3.2-1.2,6.6-1.7,10-1.4c2.7,0.1,5.3,1.2,7.3,3.2c1.9,2.1,2.9,4.7,3,7.5c0.1,3.1-0.2,6.1-1,9.1c-1.7,7.1-5,13.8-9.6,19.4
			c-1,1.2-2,2.2-3.2,3.2c-3.4,2.9-7.7,4.5-12.2,4.5L158.4,172.6z M164.4,127.1c-3.4,1.4-6.7,3-9.9,4.8c-2.4,1.3-4.8,2.6-7.2,3.7
			l-1.3,0.6c-2.1,0.8-4.2,1.9-6,3.3c-1.3,1-2.3,2.4-2.9,4c-0.5,1.5-0.7,3-0.5,4.6c0.4,2.9,1.2,5.8,2.4,8.5
			c2.3,5.7,6.4,10.4,11.7,13.5c2.3,1.5,5,2.4,7.8,2.5h0.2c4.4,0,8.7-1.6,12.1-4.5c1.2-1,2.2-2,3.2-3.2c4.6-5.6,7.9-12.3,9.6-19.4
			c0.8-3,1.1-6,1-9.1c-0.1-2.8-1.1-5.4-3-7.5c-2-1.9-4.5-3-7.2-3.1c-0.6-0.1-1.1-0.1-1.7-0.1C169.8,125.7,167.1,126.2,164.4,127.1
			L164.4,127.1z"/>
		
			<linearGradient id="SVGID_40_" gradientUnits="userSpaceOnUse" x1="429.011" y1="28.4098" x2="470.641" y2="28.4098" gradientTransform="matrix(1 0 0 -1 -290.69 178.21)">
			<stop  offset="0" style="stop-color:#CA92C1"/>
			<stop  offset="1" style="stop-color:#72CDDF"/>
		</linearGradient>
		<path class="st38" d="M156.9,170.1L156.9,170.1c-2.4-0.1-4.7-0.9-6.7-2.2c-4.5-2.7-8-6.8-9.9-11.7c-1-2.3-1.6-4.8-1.9-7.3
			c-0.3-2.8,0.8-5.6,3-7.4c1.6-1.2,3.3-2.2,5.2-2.9l1.1-0.5c2-0.9,4-2,5.9-3.1c2.8-1.7,5.7-3.1,8.7-4.3c2.8-1,5.7-1.4,8.7-1.2
			c2.4,0.1,4.6,1.1,6.3,2.8c1.6,1.8,2.6,4.1,2.7,6.5c0.2,2.6-0.1,5.3-0.7,7.9c-1.4,6.3-4.2,12.1-8.3,17c-0.9,1-1.8,2-2.9,2.8
			c-3,2.4-6.6,3.6-10.4,3.6H156.9z M162.3,130.8c-3,1.2-5.9,2.6-8.7,4.3c-1.9,1.1-3.9,2.2-5.9,3.1l-1.1,0.5
			c-1.8,0.7-3.6,1.7-5.2,2.9c-2.2,1.8-3.3,4.6-3,7.4c0.3,2.5,0.9,5,1.9,7.3c1.9,4.9,5.4,9,9.9,11.7c2,1.3,4.3,2,6.7,2.2l0,0h0.7
			c3.7,0,7.4-1.3,10.3-3.6c1.1-0.8,2-1.8,2.9-2.8c4.1-4.9,7-10.7,8.3-17c0.6-2.6,0.9-5.2,0.7-7.9c-0.1-2.4-1-4.7-2.6-6.5
			c-1.7-1.6-3.9-2.6-6.3-2.8c-0.6-0.1-1.2-0.1-1.7-0.1C166.8,129.5,164.5,129.9,162.3,130.8L162.3,130.8z"/>
		
			<linearGradient id="SVGID_41_" gradientUnits="userSpaceOnUse" x1="430.8434" y1="27.7362" x2="465.8856" y2="27.7362" gradientTransform="matrix(1 0 0 -1 -290.69 178.21)">
			<stop  offset="0" style="stop-color:#CA92C1"/>
			<stop  offset="1" style="stop-color:#72CDDF"/>
		</linearGradient>
		<path class="st39" d="M155.4,167.6L155.4,167.6c-2-0.2-3.9-0.8-5.6-1.9c-3.8-2.3-6.7-5.7-8.2-9.9c-1.1-3.1-3.1-8.9,1.1-12.4
			c1.4-1,2.8-1.9,4.4-2.5l0.8-0.4c1.5-0.7,3.1-1.6,4.6-2.5c2.4-1.5,4.9-2.7,7.6-3.7c2.4-0.9,4.9-1.2,7.4-0.9c2,0.2,3.9,1,5.4,2.4
			c1.4,1.5,2.2,3.4,2.4,5.5c0.2,2.2,0,4.5-0.4,6.6c-1.1,5.4-3.5,10.4-7,14.6c-0.8,0.9-1.6,1.7-2.6,2.4c-2.4,1.8-5.4,2.7-8.4,2.7
			C156.3,167.6,155.8,167.6,155.4,167.6z M160.1,134.4c-2.6,1-5.1,2.3-7.5,3.7c-1.5,0.9-3,1.7-4.6,2.5l-0.8,0.4
			c-1.6,0.7-3,1.5-4.4,2.5c-4.2,3.4-2.1,9.2-1.1,12.3c1.5,4.1,4.4,7.6,8.1,9.8c1.7,1.1,3.6,1.7,5.5,1.9l0,0c3.4,0.4,6.9-0.6,9.7-2.6
			c0.9-0.7,1.8-1.5,2.6-2.4c3.5-4.2,5.9-9.2,7-14.6c0.5-2.2,0.6-4.4,0.4-6.6c-0.1-2-1-4-2.4-5.5c-1.4-1.4-3.3-2.2-5.3-2.4
			c-0.6-0.1-1.1-0.1-1.7-0.1C163.8,133.4,161.9,133.7,160.1,134.4z"/>
		
			<linearGradient id="SVGID_42_" gradientUnits="userSpaceOnUse" x1="432.6625" y1="27.004" x2="461.1825" y2="27.004" gradientTransform="matrix(1 0 0 -1 -290.69 178.21)">
			<stop  offset="0" style="stop-color:#CA92C1"/>
			<stop  offset="1" style="stop-color:#72CDDF"/>
		</linearGradient>
		<path class="st40" d="M153.9,165.1L153.9,165.1c-1.6-0.2-3.1-0.8-4.5-1.6c-3-1.8-5.3-4.7-6.4-8c-0.8-2.5-2.2-7.1,1.1-10
			c1.1-0.9,2.3-1.6,3.6-2.2l0.5-0.3c1.1-0.6,2.2-1.2,3.3-1.8c2-1.3,4.2-2.3,6.4-3.2c1.9-0.7,4-0.9,6-0.6c1.6,0.2,3.2,0.9,4.4,2
			c2,2,2.7,5.4,1.9,9.9c-0.7,4.5-2.7,8.7-5.7,12.2c-0.7,0.8-1.4,1.4-2.2,2c-1.8,1.2-4,1.9-6.2,1.8
			C155.3,165.2,154.6,165.1,153.9,165.1z M157.9,138c-2.2,0.9-4.4,1.9-6.4,3.2c-1.1,0.6-2.2,1.3-3.3,1.8l-0.5,0.3
			c-1.3,0.6-2.5,1.3-3.6,2.2c-3.3,2.8-1.9,7.5-1.1,9.9c1.1,3.3,3.4,6.2,6.4,8c1.3,0.9,2.8,1.4,4.4,1.6l0,0c3.4,0.4,6.1-0.1,8.4-1.6
			c0.8-0.6,1.6-1.2,2.2-2c3-3.4,4.9-7.6,5.7-12.1c0.8-4.5,0.1-7.8-1.9-9.8c-1.2-1.1-2.7-1.8-4.4-2c-0.6-0.1-1.1-0.1-1.7-0.1
			C160.8,137.3,159.3,137.5,157.9,138L157.9,138z"/>
		
			<linearGradient id="SVGID_43_" gradientUnits="userSpaceOnUse" x1="434.4726" y1="26.2646" x2="456.4897" y2="26.2646" gradientTransform="matrix(1 0 0 -1 -290.69 178.21)">
			<stop  offset="0" style="stop-color:#CA92C1"/>
			<stop  offset="1" style="stop-color:#72CDDF"/>
		</linearGradient>
		<path class="st41" d="M152.4,162.5L152.4,162.5c-1.2-0.2-2.3-0.7-3.3-1.4c-2.3-1.4-3.9-3.6-4.7-6.2c-0.5-1.7-1.4-5.4,1.1-7.6
			c0.9-0.7,1.8-1.4,2.8-1.9l0.2-0.1c0.6-0.4,1.3-0.8,2-1.2c1.6-1.1,3.4-2,5.2-2.7c1.5-0.5,3.2-0.6,4.7-0.3c1.3,0.2,2.5,0.8,3.4,1.6
			c2,2,2.2,5.3,1.9,7.6c-0.4,3.6-1.9,7-4.4,9.8c-0.6,0.6-1.2,1.2-1.9,1.6c-1.1,0.6-2.3,1-3.5,1h-0.5
			C154.4,162.8,153.4,162.7,152.4,162.5z M155.7,141.6c-1.8,0.7-3.6,1.6-5.2,2.7c-0.6,0.4-1.3,0.8-2,1.2l-0.2,0.1
			c-1,0.5-1.9,1.1-2.8,1.9c-2.5,2.3-1.6,5.9-1.1,7.6c0.8,2.5,2.4,4.7,4.7,6.1c1,0.7,2.1,1.1,3.3,1.3l0,0c2.2,0.4,4.7,0.7,7-0.7
			c0.7-0.4,1.4-1,1.9-1.6c2.4-2.7,4-6.1,4.3-9.7c0.3-2.4,0.2-5.6-1.9-7.6c-0.9-0.9-2.1-1.4-3.4-1.6c-0.6-0.1-1.1-0.2-1.7-0.1
			C157.7,141.1,156.6,141.3,155.7,141.6z"/>
		
			<linearGradient id="SVGID_44_" gradientUnits="userSpaceOnUse" x1="436.2325" y1="25.354" x2="451.8925" y2="25.354" gradientTransform="matrix(1 0 0 -1 -290.69 178.21)">
			<stop  offset="0" style="stop-color:#CA92C1"/>
			<stop  offset="1" style="stop-color:#72CDDF"/>
		</linearGradient>
		<path class="st42" d="M150.8,160L150.8,160c-0.8-0.2-1.5-0.6-2.2-1.1c-1.5-1-2.6-2.5-3-4.3c-0.2-1.5-0.4-3.7,1.2-5.3
			c0.6-0.6,1.3-1.1,2-1.5l0.6-0.4c1.2-0.9,2.6-1.7,4-2.2c1.1-0.3,2.3-0.3,3.5,0c0.9,0.2,1.8,0.6,2.5,1.3c0.9,0.8,1.9,2.4,1.9,5.4
			c0,2.7-1.1,5.4-3,7.4c-0.5,0.5-1,0.9-1.6,1.2c-0.7,0.3-1.4,0.5-2.2,0.5C153.2,160.7,152,160.5,150.8,160z M153.5,145.2
			c-1.4,0.5-2.8,1.3-4,2.2l-0.6,0.4c-0.7,0.4-1.4,1-2,1.5c-1.5,1.5-1.4,3.7-1.1,5.2c0.4,1.8,1.4,3.3,2.9,4.3
			c0.7,0.5,1.4,0.8,2.2,1.1l0,0c2,0.7,3.9,1.2,5.7,0.3c0.6-0.3,1.1-0.7,1.6-1.2c1.9-2,3-4.6,3-7.3c0.1-3-1-4.5-1.9-5.4
			c-0.7-0.6-1.5-1.1-2.4-1.3c-0.5-0.1-1.1-0.2-1.6-0.2C154.7,144.9,154.1,145,153.5,145.2z"/>
		
			<linearGradient id="SVGID_45_" gradientUnits="userSpaceOnUse" x1="437.7255" y1="24.4331" x2="447.4942" y2="24.4331" gradientTransform="matrix(1 0 0 -1 -290.69 178.21)">
			<stop  offset="0" style="stop-color:#CA92C1"/>
			<stop  offset="1" style="stop-color:#72CDDF"/>
		</linearGradient>
		<path class="st43" d="M149.3,157.5c-1.2-0.8-2.4-1.9-2.3-3.3c0.2-1.5,1-2.9,2.1-4l0,0c0.6-0.7,1.3-1.2,2.2-1.5
			c0.7-0.1,1.5-0.1,2.1,0.2c2.8,1.1,4.1,4.2,3,6.9c-0.3,0.8-0.8,1.5-1.4,2.1c-0.4,0.3-0.8,0.6-1.3,0.8c-0.3,0.1-0.6,0.1-0.9,0.1
			C151.5,158.8,150.3,158.3,149.3,157.5z M151.3,148.8c-0.8,0.3-1.6,0.8-2.1,1.5l0,0c-1.1,1.1-1.8,2.4-2,4c-0.1,1.4,1,2.4,2.3,3.2
			s2.8,1.7,4.3,1.2c0.5-0.2,0.9-0.4,1.3-0.8c2.2-1.9,2.4-5.3,0.4-7.5c-0.6-0.6-1.3-1.1-2-1.4c-0.5-0.2-0.9-0.3-1.4-0.3
			C151.7,148.7,151.5,148.8,151.3,148.8L151.3,148.8z"/>
	</g>
</g>
<linearGradient id="SVGID_46_" gradientUnits="userSpaceOnUse" x1="379.6025" y1="29.7204" x2="537.4925" y2="29.7204" gradientTransform="matrix(1 0 0 -1 -290.69 178.21)">
	<stop  offset="0" style="stop-color:#CA92C1"/>
	<stop  offset="1" style="stop-color:#72CDDF"/>
</linearGradient>
<path class="st44" d="M167.9,227.4h-0.5c-43.6-0.1-78.8-35.6-78.7-79.2c0.1-43.6,35.6-78.8,79.2-78.7l0,0h0.5
	c43.6,0.1,78.8,35.6,78.7,79.2S211.5,227.6,167.9,227.4z M167.9,70.6c-43,0.3-77.6,35.5-77.2,78.5c0.3,42.3,34.4,76.6,76.8,77.2h0.5
	c43-0.3,77.6-35.5,77.2-78.5c-0.3-42.3-34.4-76.6-76.8-77.2H167.9z M152.5,173.2c-0.8,0-1.6-0.2-2.3-0.6c-1.6-0.8-2.5-2.5-2.5-4.2
	l0.2-39.7c0-2.7,2.2-4.8,4.9-4.8c0.9,0,1.8,0.3,2.6,0.8l30.4,20.1c2.2,1.5,2.8,4.4,1.4,6.6c-0.4,0.6-0.9,1-1.4,1.4l-30.7,19.7
	C154.3,172.9,153.4,173.2,152.5,173.2z M152.8,124.9c-0.6,0-1.2,0.2-1.8,0.4c-1.2,0.6-2,1.9-2,3.3l-0.2,39.7c0,2.1,1.6,3.7,3.7,3.7
	c0.7,0,1.4-0.2,2-0.6l30.7-19.7c1.1-0.7,1.7-1.9,1.7-3.1c0-1.3-0.6-2.4-1.7-3.1l-30.5-20.1C154.2,125.1,153.5,124.9,152.8,124.9
	L152.8,124.9z"/>
<text transform="matrix(1 0 0 1 960 540)" style="font-family:'MyriadPro-Regular'; font-size:12px;">https://github.com/rikiDalvarez</text>
</svg>
