<?xml version="1.0" encoding="iso-8859-1"?>
<!-- Generator: Adobe Illustrator 19.0.0, SVG Export Plug-In . SVG Version: 6.00 Build 0)  -->
<svg version="1.1" id="Layer_1" xmlns="http://www.w3.org/2000/svg" xmlns:xlink="http://www.w3.org/1999/xlink" x="0px" y="0px"
	 viewBox="0 0 496.001 496.001" style="enable-background:new 0 0 496.001 496.001;" xml:space="preserve">
<path style="fill:#1CB1E6;" d="M423.576,36.254C354.632,34.03,307.96,72.19,283.472,150.686c12.56-5.192,24.824-7.672,36.688-7.672
	c25.184,0,36.296,13.848,33.328,41.728c-1.512,16.92-12.576,41.464-33.328,73.76c-20.768,32.248-36.344,48.36-46.696,48.36
	c-13.368,0-25.552-24.872-36.696-74.768c-3.704-14.672-10.416-52.072-19.944-112.272c-8.944-55.736-32.68-81.816-71.184-78.104
	c-16.32,1.528-40.792,16.168-73.336,44.048C48.52,106.998,24.448,128.318,0,149.534l23.336,29.76
	c22.28-15.44,35.192-23.16,38.904-23.16c17.024,0,32.952,26.424,47.832,79.288c13.352,48.312,26.656,96.784,40.04,145.248
	c19.984,52.832,44.44,79.168,73.32,79.168c46.68,0,103.824-43.272,171.24-129.88c65.152-82.816,98.936-148.088,101.08-195.84
	C498.752,70.334,474.632,37.67,423.576,36.254z"/>
<g>
	<path style="fill:#1CDDF7;" d="M286.68,300.518c-9.824,8.76-14.984,6.664-11.128,6.664c10.352,0,27.448,0,69.152-48.688
		c24.984-29.152,31.816-56.832,33.336-73.76c2.968-27.88-8.144-41.728-33.336-41.728c-4.488,0-9.056,0.48-13.656,1.192
		c17.352,3.736,24.928,17.12,22.44,40.536c-1.512,16.92-12.576,41.464-33.328,73.76C306.88,279.158,295.72,293.11,286.68,300.518z"
		/>
	<path style="fill:#1CDDF7;" d="M430.456,36.718c-2.256-0.192-4.504-0.408-6.872-0.472C354.64,34.022,307.968,72.182,283.48,150.678
		c9.16-3.784,18.16-6.088,26.96-7.088C333.216,76.678,373.192,41.038,430.456,36.718z"/>
	<path style="fill:#1CDDF7;" d="M24.544,149.534c24.44-21.216,48.528-42.528,72.312-63.768
		c29.328-25.128,52.04-39.392,68.192-43.104c-5.992-1.272-12.448-1.608-19.4-0.944c-16.32,1.528-40.792,16.168-73.336,44.048
		C48.52,106.998,24.448,128.318,0,149.534l23.336,29.76"/>
	<path style="fill:#1CDDF7;" d="M174.656,380.67c-13.392-48.472-26.696-96.936-40.032-145.248
		c-14.88-52.856-53.384-79.6-70.408-79.6c-1.752,0,2.424,0.488,10.968,5.608c12.224,10.104,23.848,34.744,34.896,74
		c13.352,48.312,26.656,96.784,40.04,145.248c19.984,52.832,44.44,79.168,73.32,79.168c4.448,0,9.032-0.52,13.672-1.312
		C212.912,452.646,192.072,426.742,174.656,380.67z"/>
</g>
<g>
</g>
<g>
</g>
<g>
</g>
<g>
</g>
<g>
</g>
<g>
</g>
<g>
</g>
<g>
</g>
<g>
</g>
<g>
</g>
<g>
</g>
<g>
</g>
<g>
</g>
<g>
</g>
<g>
</g>
</svg>
